<svg width="66" height="66" viewBox="0 0 66 66" fill="none" xmlns="http://www.w3.org/2000/svg">
<rect x="1.5" y="1.5" width="63" height="63" rx="31.5" fill="#BBBBBB" stroke="#FCFCFC" stroke-width="3"/>
<path d="M33.0007 33.0001C36.6825 33.0001 39.6673 30.0153 39.6673 26.3334C39.6673 22.6515 36.6825 19.6667 33.0007 19.6667C29.3188 19.6667 26.334 22.6515 26.334 26.3334C26.334 30.0153 29.3188 33.0001 33.0007 33.0001Z" fill="#FCFCFC"/>
<path d="M33.0009 36.3333C26.3209 36.3333 20.8809 40.8133 20.8809 46.3333C20.8809 46.7066 21.1742 46.9999 21.5475 46.9999H44.4542C44.8275 46.9999 45.1209 46.7066 45.1209 46.3333C45.1209 40.8133 39.6809 36.3333 33.0009 36.3333Z" fill="#FCFCFC"/>
</svg>
