<svg width="40" height="40" viewBox="0 0 40 40" fill="none" xmlns="http://www.w3.org/2000/svg">
<path d="M20.0002 3.33337C10.8002 3.33337 3.3335 10.8 3.3335 20C3.3335 29.2 10.8002 36.6667 20.0002 36.6667C29.2002 36.6667 36.6668 29.2 36.6668 20C36.6668 10.8 29.2002 3.33337 20.0002 3.33337ZM26.7168 20.8834L21.7168 25.8834C21.4668 26.1334 21.1502 26.25 20.8335 26.25C20.5168 26.25 20.2002 26.1334 19.9502 25.8834C19.4668 25.4 19.4668 24.6 19.9502 24.1167L22.8168 21.25H14.1668C13.4835 21.25 12.9168 20.6834 12.9168 20C12.9168 19.3167 13.4835 18.75 14.1668 18.75H22.8168L19.9502 15.8834C19.4668 15.4 19.4668 14.6 19.9502 14.1167C20.4335 13.6334 21.2335 13.6334 21.7168 14.1167L26.7168 19.1167C27.2002 19.6 27.2002 20.4 26.7168 20.8834Z" fill="#BEBEC0"/>
</svg>
