<svg width="24" height="24" viewBox="0 0 24 24" fill="none" xmlns="http://www.w3.org/2000/svg">
<path d="M6.76017 22.0001H17.5C20.26 22.0001 21.6202 20.3101 21.7502 18.2501V9.99009C21.8902 7.83009 20.1702 6.00009 18.0002 6.00009C17.3902 6.00009 16.8302 5.65009 16.5502 5.11009L15.8302 3.66009C15.3702 2.75009 14.31 2.5 13.29 2.5H11C9.97 2.5 8.63017 2.75009 8.17017 3.66009L7.45017 5.11009C7.17017 5.65009 6.61017 6.00009 6.00017 6.00009C3.83017 6.00009 2.11017 7.83009 2.25017 9.99009L2.25017 18.2501C2.37017 20.3101 4.00017 22.0001 6.76017 22.0001Z" stroke="#363636" stroke-width="1.5" stroke-linecap="round" stroke-linejoin="round"/>
<path d="M12 18C13.79 18 15.25 16.54 15.25 14.75C15.25 12.96 13.79 11.5 12 11.5C10.21 11.5 8.75 12.96 8.75 14.75C8.75 16.54 10.21 18 12 18Z" stroke="#363636" stroke-width="1.5" stroke-linecap="round" stroke-linejoin="round"/>
</svg>
