<svg width="32" height="32" viewBox="0 0 32 32" fill="none" xmlns="http://www.w3.org/2000/svg">
<path d="M23.7348 2.80065L10.4948 6.12065C8.56142 6.60065 6.60143 8.56065 6.12143 10.494L2.80143 23.734C1.80143 27.734 4.25476 30.2007 8.26809 29.2007L21.5081 25.894C23.4281 25.414 25.4014 23.4407 25.8814 21.5207L29.2014 8.26732C30.2014 4.26732 27.7348 1.80065 23.7348 2.80065Z" stroke="#404040" stroke-width="1.5" stroke-linecap="round" stroke-linejoin="round"/>
<path d="M16.0026 20.6693C18.5799 20.6693 20.6693 18.5799 20.6693 16.0026C20.6693 13.4253 18.5799 11.3359 16.0026 11.3359C13.4253 11.3359 11.3359 13.4253 11.3359 16.0026C11.3359 18.5799 13.4253 20.6693 16.0026 20.6693Z" stroke="#404040" stroke-width="1.5" stroke-linecap="round" stroke-linejoin="round"/>
</svg>
