<svg width="32" height="32" viewBox="0 0 32 32" fill="none" xmlns="http://www.w3.org/2000/svg">
<path d="M23.9707 14.3867V19.72C23.9707 20.0667 23.9574 20.4 23.9174 20.72C23.6107 24.32 21.4907 26.1066 17.5841 26.1066H17.0507C16.7174 26.1066 16.3974 26.2667 16.1974 26.5333L14.5974 28.6667C13.8907 29.6133 12.7441 29.6133 12.0374 28.6667L10.4374 26.5333C10.264 26.3067 9.8774 26.1066 9.58407 26.1066H9.05074C4.79741 26.1066 2.66406 25.0533 2.66406 19.72V14.3867C2.66406 10.48 4.46407 8.36001 8.05074 8.05334C8.37074 8.01334 8.70407 8 9.05074 8H17.5841C21.8374 8 23.9707 10.1333 23.9707 14.3867Z" stroke="#404040" stroke-width="1.5" stroke-miterlimit="10" stroke-linecap="round" stroke-linejoin="round"/>
<path d="M29.308 9.05074V14.3841C29.308 18.3041 27.508 20.4107 23.9213 20.7174C23.9613 20.3974 23.9747 20.0641 23.9747 19.7174V14.3841C23.9747 10.1307 21.8413 7.9974 17.588 7.9974H9.05469C8.70802 7.9974 8.37469 8.01074 8.05469 8.05074C8.36135 4.46407 10.4814 2.66406 14.388 2.66406H22.9213C27.1747 2.66406 29.308 4.79741 29.308 9.05074Z" stroke="#404040" stroke-width="1.5" stroke-miterlimit="10" stroke-linecap="round" stroke-linejoin="round"/>
<path d="M17.9966 17.6667H18.0086" stroke="#404040" stroke-width="2" stroke-linecap="round" stroke-linejoin="round"/>
<path d="M13.3247 17.6667H13.3367" stroke="#404040" stroke-width="2" stroke-linecap="round" stroke-linejoin="round"/>
<path d="M8.66067 17.6667H8.67267" stroke="#404040" stroke-width="2" stroke-linecap="round" stroke-linejoin="round"/>
</svg>
