<svg width="28" height="28" viewBox="0 0 28 28" fill="none" xmlns="http://www.w3.org/2000/svg">
<path d="M12 6C12 4.89455 12.8945 4 14 4C15.1055 4 16 4.89455 16 6C16 7.10545 15.1055 8 14 8C12.8945 8 12 7.10545 12 6Z" fill="#696969"/>
<path d="M12 14C12 12.8945 12.8945 12 14 12C15.1055 12 16 12.8945 16 14C16 15.1055 15.1055 16 14 16C12.8945 16 12 15.1055 12 14Z" fill="#696969"/>
<path d="M12 22C12 20.8945 12.8945 20 14 20C15.1055 20 16 20.8945 16 22C16 23.1055 15.1055 24 14 24C12.8945 24 12 23.1055 12 22Z" fill="#696969"/>
</svg>
