<svg width="28" height="28" viewBox="0 0 28 28" fill="none" xmlns="http://www.w3.org/2000/svg">
<path d="M6 16C4.89455 16 4 15.1055 4 14C4 12.8945 4.89455 12 6 12C7.10545 12 8 12.8945 8 14C8 15.1055 7.10545 16 6 16Z" fill="#696969"/>
<path d="M14 16C12.8945 16 12 15.1055 12 14C12 12.8945 12.8945 12 14 12C15.1055 12 16 12.8945 16 14C16 15.1055 15.1055 16 14 16Z" fill="#696969"/>
<path d="M22 16C20.8945 16 20 15.1055 20 14C20 12.8945 20.8945 12 22 12C23.1055 12 24 12.8945 24 14C24 15.1055 23.1055 16 22 16Z" fill="#696969"/>
</svg>
