<svg width="56" height="56" viewBox="0 0 56 56" fill="none" xmlns="http://www.w3.org/2000/svg">
<g clip-path="url(#clip0_1100_229300)">
<circle cx="28" cy="28" r="28" fill="#1BA4AD"/>
<path d="M18.1296 23.3334L19.5556 14H36.6667L38.0926 23.3334L45.2222 26.6667C40.9444 29.3334 15.2778 29.3334 11 26.6667L18.1296 23.3334Z" fill="#FCFCFC"/>
<path fill-rule="evenodd" clip-rule="evenodd" d="M25.884 37.9989C25.2761 40.2991 23.1323 41.9987 20.581 41.9987C17.557 41.9987 15.1055 39.6109 15.1055 36.6654C15.1055 33.7199 17.557 31.332 20.581 31.332C23.1325 31.332 25.2763 33.0318 25.8841 35.3322H30.3358C30.9436 33.0318 33.0874 31.332 35.6389 31.332C38.663 31.332 41.1144 33.7199 41.1144 36.6654C41.1144 39.6109 38.663 41.9987 35.6389 41.9987C33.0876 41.9987 30.9438 40.2991 30.3359 37.9989H25.884Z" fill="#FCFCFC"/>
</g>
<defs>
<clipPath id="clip0_1100_229300">
<rect width="56" height="56" fill="white"/>
</clipPath>
</defs>
</svg>
