<svg width="56" height="56" viewBox="0 0 56 56" fill="none" xmlns="http://www.w3.org/2000/svg">
<g clip-path="url(#clip0_4489_194731)">
<circle cx="28" cy="28" r="28" fill="#1BA4AD"/>
<path d="M16.1481 22.6667L17.7778 12H37.3333L38.963 22.6667L47.1111 26.4763C42.2222 29.5239 12.8889 29.5239 8 26.4763L16.1481 22.6667Z" fill="#FCFCFC"/>
<path fill-rule="evenodd" clip-rule="evenodd" d="M25.0089 39.4286C24.3142 42.0574 21.8641 43.9999 18.9483 43.9999C15.4923 43.9999 12.6906 41.2709 12.6906 37.9046C12.6906 34.5383 15.4923 31.8093 18.9483 31.8093C21.8643 31.8093 24.3144 33.7519 25.009 36.3809H30.096C30.7906 33.7519 33.2407 31.8093 36.1567 31.8093C39.6127 31.8093 42.4144 34.5383 42.4144 37.9046C42.4144 41.2709 39.6127 43.9999 36.1567 43.9999C33.2409 43.9999 30.7908 42.0574 30.0961 39.4286H25.0089Z" fill="#FCFCFC"/>
</g>
<defs>
<clipPath id="clip0_4489_194731">
<rect width="56" height="56" fill="white"/>
</clipPath>
</defs>
</svg>
