<svg width="52" height="48" viewBox="0 0 52 48" fill="none" xmlns="http://www.w3.org/2000/svg">
<path d="M30.5239 24.12C30.5239 26.58 28.3342 28.62 25.5472 28.62C22.7602 28.62 20.5705 26.58 20.5705 24.12C20.5705 21.6 22.7602 19.56 25.5472 19.56C28.3342 19.56 30.5239 21.6 30.5239 24.12ZM51.0944 23.94C51.0944 35.94 42.5344 48 25.6136 48C8.42725 48 0 35.94 0 23.94C0 12 8.42725 0 25.6136 0C42.5344 0 51.0944 12 51.0944 23.94ZM41.1409 24.12C41.1409 16.26 35.8988 8.46 25.6136 8.46C15.1956 8.46 10.0198 16.26 10.0198 24.12C10.0198 31.86 15.1956 39.6 25.6136 39.6C35.8988 39.6 41.1409 31.86 41.1409 24.12Z" fill="#FCFCFC"/>
</svg>
