<svg width="12" height="12" viewBox="0 0 12 12" fill="none" xmlns="http://www.w3.org/2000/svg">
<path d="M4.58027 5.435C4.53027 5.43 4.47027 5.43 4.41527 5.435C3.22527 5.395 2.28027 4.42 2.28027 3.22C2.28027 1.995 3.27027 1 4.50027 1C5.72527 1 6.72027 1.995 6.72027 3.22C6.71527 4.42 5.77027 5.395 4.58027 5.435Z" stroke="#D9D9D9" stroke-width="0.8" stroke-linecap="round" stroke-linejoin="round"/>
<path d="M8.20465 2C9.17465 2 9.95465 2.785 9.95465 3.75C9.95465 4.695 9.20465 5.465 8.26965 5.5C8.22965 5.495 8.18465 5.495 8.13965 5.5" stroke="#D9D9D9" stroke-width="0.8" stroke-linecap="round" stroke-linejoin="round"/>
<path d="M2.08035 7.28C0.870352 8.09 0.870352 9.41 2.08035 10.215C3.45535 11.135 5.71035 11.135 7.08535 10.215C8.29535 9.405 8.29535 8.085 7.08535 7.28C5.71535 6.365 3.46035 6.365 2.08035 7.28Z" stroke="#D9D9D9" stroke-width="0.8" stroke-linecap="round" stroke-linejoin="round"/>
<path d="M9.16992 10C9.52992 9.925 9.86992 9.78 10.1499 9.565C10.9299 8.98 10.9299 8.015 10.1499 7.43C9.87492 7.22 9.53992 7.08 9.18492 7" stroke="#D9D9D9" stroke-width="0.8" stroke-linecap="round" stroke-linejoin="round"/>
</svg>
