<svg width="33" height="48" viewBox="0 0 33 48" fill="none" xmlns="http://www.w3.org/2000/svg">
<path d="M24.3528 21.36C29.9267 23.7 32.9791 28.38 32.9791 34.02C32.9791 43.02 25.0163 48 16.5227 48C16.5227 48 16.5227 48 16.4564 48V39.36C16.5227 39.36 16.5227 39.36 16.5227 39.36C20.0396 39.36 23.1584 37.2 23.1584 34.02C23.1584 30.48 19.5088 28.32 16.5227 28.2C16.0582 28.2 12.475 28.2 8.62633 26.58C3.11875 24.3 0 20.04 0 14.46C0 5.46 8.02912 0 16.5227 0C25.6136 0 32.6473 5.52 32.78 13.68C32.8464 13.86 32.5146 14.16 32.0501 14.16H23.7556C23.3574 14.16 23.0257 13.86 23.0257 13.68C22.893 10.26 19.9733 8.64 16.5227 8.64C12.8731 8.64 9.88709 10.62 9.88709 14.46C9.88709 17.94 13.1386 19.74 16.5227 19.74C16.8545 19.74 20.5705 19.74 24.3528 21.36Z" fill="#FCFCFC"/>
</svg>
