<svg width="30" height="30" viewBox="0 0 30 30" fill="none" xmlns="http://www.w3.org/2000/svg">
<path d="M15.7334 15.2318H15.2334V15.7318V20.0651C15.2334 20.3356 15.0039 20.5651 14.7334 20.5651C14.4628 20.5651 14.2334 20.3356 14.2334 20.0651V15.7318V15.2318H13.7334H9.40002C9.1295 15.2318 8.90002 15.0023 8.90002 14.7318C8.90002 14.4612 9.1295 14.2318 9.40002 14.2318H13.7334H14.2334V13.7318V9.39844C14.2334 9.12791 14.4628 8.89844 14.7334 8.89844C15.0039 8.89844 15.2334 9.12791 15.2334 9.39844V13.7318V14.2318H15.7334H20.0667C20.3372 14.2318 20.5667 14.4612 20.5667 14.7318C20.5667 15.0023 20.3372 15.2318 20.0667 15.2318H15.7334ZM20.32 0.898438H9.14669C6.62059 0.898438 4.54468 1.65334 3.0998 3.09822C1.65493 4.54309 0.900024 6.619 0.900024 9.1451V20.3051C0.900024 22.8375 1.65472 24.9168 3.09958 26.3634C4.54452 27.8102 6.62058 28.5651 9.14669 28.5651H20.3067C22.8328 28.5651 24.9087 27.8102 26.3536 26.3653C27.7985 24.9205 28.5534 22.8445 28.5534 20.3184L28.5534 9.14648C28.5534 9.14624 28.5534 9.14601 28.5534 9.14578C28.5602 6.61967 27.8088 4.54355 26.3655 3.09844C24.9221 1.6533 22.846 0.898438 20.32 0.898438Z" stroke="#797979"/>
</svg>
