<svg width="44" height="44" viewBox="0 0 44 44" fill="none" xmlns="http://www.w3.org/2000/svg">
<path d="M29.6816 3.66663H14.3183C7.64496 3.66663 3.66663 7.64496 3.66663 14.3183V29.6633C3.66663 36.355 7.64496 40.3333 14.3183 40.3333H29.6633C36.3366 40.3333 40.315 36.355 40.315 29.6816V14.3183C40.3333 7.64496 36.355 3.66663 29.6816 3.66663ZM29.3333 23.375H23.375V29.3333C23.375 30.085 22.7516 30.7083 22 30.7083C21.2483 30.7083 20.625 30.085 20.625 29.3333V23.375H14.6666C13.915 23.375 13.2916 22.7516 13.2916 22C13.2916 21.2483 13.915 20.625 14.6666 20.625H20.625V14.6666C20.625 13.915 21.2483 13.2916 22 13.2916C22.7516 13.2916 23.375 13.915 23.375 14.6666V20.625H29.3333C30.085 20.625 30.7083 21.2483 30.7083 22C30.7083 22.7516 30.085 23.375 29.3333 23.375Z" fill="#6E44FF"/>
</svg>
