<svg width="60" height="60" viewBox="0 0 60 60" fill="none" xmlns="http://www.w3.org/2000/svg">
<circle cx="30" cy="30" r="29.5" fill="#110E18" stroke="#2A2637"/>
<path d="M37.4118 28.4118H31.5882V22.5882C31.5882 21.72 30.8682 21 30 21C29.1318 21 28.4118 21.72 28.4118 22.5882V28.4118H22.5882C21.72 28.4118 21 29.1318 21 30C21 30.8682 21.72 31.5882 22.5882 31.5882H28.4118V37.4118C28.4118 38.28 29.1318 39 30 39C30.8682 39 31.5882 38.28 31.5882 37.4118V31.5882H37.4118C38.28 31.5882 39 30.8682 39 30C39 29.1318 38.28 28.4118 37.4118 28.4118Z" fill="#2E2A3B"/>
</svg>
