<svg width="43" height="42" viewBox="0 0 43 42" fill="none" xmlns="http://www.w3.org/2000/svg">
<path d="M39 13.6675V28.315C39 34.685 35.2025 38.4825 28.8325 38.4825H14.1675C7.7975 38.5 4 34.7025 4 28.3325V13.6675C4 7.2975 7.7975 3.5 14.1675 3.5H28.815C35.2025 3.5 39 7.2975 39 13.6675Z" fill="#6E44FF"/>
<path d="M22.4277 9.5725L29.9352 17.08C30.4427 17.5875 30.4427 18.4275 29.9352 18.935C29.4277 19.4425 28.5877 19.4425 28.0802 18.935L22.8127 13.6675V31.5C22.8127 32.2175 22.2177 32.8125 21.5002 32.8125C20.7827 32.8125 20.1877 32.2175 20.1877 31.5V13.6675L14.9202 18.935C14.4127 19.4425 13.5727 19.4425 13.0652 18.935C12.8027 18.6725 12.6802 18.34 12.6802 18.0075C12.6802 17.675 12.8202 17.325 13.0652 17.08L20.5727 9.5725C20.8177 9.3275 21.1502 9.1875 21.5002 9.1875C21.8502 9.1875 22.1827 9.3275 22.4277 9.5725Z" fill="#FCFCFC"/>
</svg>
