<svg width="32" height="32" viewBox="0 0 32 32" fill="none" xmlns="http://www.w3.org/2000/svg">
<path opacity="0.4" d="M10.4159 29.3359L21.5893 29.3359C26.4426 29.3359 29.3359 26.4426 29.3359 21.5893L29.3359 10.4293C29.3359 5.5626 26.4426 2.66927 21.5893 2.66927L10.4293 2.66927C5.57593 2.66927 2.6826 5.56261 2.6826 10.4159L2.6826 21.5893C2.66927 26.4426 5.5626 29.3359 10.4159 29.3359Z" fill="#404040"/>
<path d="M17.683 10.2931C17.9364 10.2931 18.1897 10.3865 18.3897 10.5865C18.7764 10.9731 18.7764 11.6131 18.3897 11.9998L14.3897 15.9998L18.3897 19.9998C18.7764 20.3865 18.7764 21.0265 18.3897 21.4131C18.003 21.7998 17.363 21.7998 16.9764 21.4131L12.2697 16.7065C11.883 16.3198 11.883 15.6798 12.2697 15.2931L16.9764 10.5865C17.1764 10.3865 17.4297 10.2931 17.683 10.2931Z" fill="white"/>
</svg>
