<svg width="40" height="40" viewBox="0 0 40 40" fill="none" xmlns="http://www.w3.org/2000/svg">
<path d="M20.0002 3.33398C10.8002 3.33398 3.3335 10.8007 3.3335 20.0007C3.3335 29.2007 10.8002 36.6673 20.0002 36.6673C29.2002 36.6673 36.6668 29.2007 36.6668 20.0007C36.6668 10.8007 29.2002 3.33398 20.0002 3.33398ZM26.7168 20.884L21.7168 25.884C21.4668 26.134 21.1502 26.2507 20.8335 26.2507C20.5168 26.2507 20.2002 26.134 19.9502 25.884C19.4668 25.4007 19.4668 24.6007 19.9502 24.1173L22.8168 21.2507H14.1668C13.4835 21.2507 12.9168 20.684 12.9168 20.0007C12.9168 19.3173 13.4835 18.7507 14.1668 18.7507H22.8168L19.9502 15.884C19.4668 15.4007 19.4668 14.6007 19.9502 14.1173C20.4335 13.634 21.2335 13.634 21.7168 14.1173L26.7168 19.1173C27.2002 19.6007 27.2002 20.4007 26.7168 20.884Z" fill="#FCFCFC"/>
</svg>
