<svg width="32" height="32" viewBox="0 0 32 32" fill="none" xmlns="http://www.w3.org/2000/svg">
<path opacity="0.4" d="M21.5841 2.66406H10.4107C5.5574 2.66406 2.66406 5.5574 2.66406 10.4107V21.5707C2.66406 26.4374 5.5574 29.3307 10.4107 29.3307H21.5707C26.4241 29.3307 29.3174 26.4374 29.3174 21.5841V10.4107C29.3307 5.5574 26.4374 2.66406 21.5841 2.66406Z" fill="#404040"/>
<path d="M14.317 21.7069C14.0636 21.7069 13.8103 21.6135 13.6103 21.4135C13.2236 21.0269 13.2236 20.3869 13.6103 20.0002L17.6103 16.0002L13.6103 12.0002C13.2236 11.6135 13.2236 10.9735 13.6103 10.5869C13.997 10.2002 14.637 10.2002 15.0236 10.5869L19.7303 15.2935C20.117 15.6802 20.117 16.3202 19.7303 16.7069L15.0236 21.4135C14.8236 21.6135 14.5703 21.7069 14.317 21.7069Z" fill="white"/>
</svg>
