<svg width="56" height="56" viewBox="0 0 56 56" fill="none" xmlns="http://www.w3.org/2000/svg">
<circle cx="27.9998" cy="27.9969" r="27.3" transform="rotate(180 27.9998 27.9969)" fill="#FCFCFC"/>
<path d="M28 56C43.428 56 56 43.428 56 28C56 12.572 43.428 1.09908e-06 28 2.44784e-06C12.572 3.7966e-06 -3.7966e-06 12.572 -2.44784e-06 28C-1.09908e-06 43.428 12.572 56 28 56ZM20.188 26.516L30.072 16.632C30.492 16.212 31.024 16.016 31.556 16.016C32.088 16.016 32.62 16.212 33.04 16.632C33.852 17.444 33.852 18.788 33.04 19.6L24.64 28L33.04 36.4C33.852 37.212 33.852 38.556 33.04 39.368C32.228 40.18 30.884 40.18 30.072 39.368L20.188 29.484C19.348 28.672 19.348 27.328 20.188 26.516Z" fill="#393644"/>
</svg>
