<svg width="20" height="20" viewBox="0 0 20 20" fill="none" xmlns="http://www.w3.org/2000/svg">
<path d="M5.63315 18.3331H14.583C16.883 18.3331 18.0165 16.9247 18.1248 15.2081V8.32475C18.2415 6.52475 16.8081 4.99975 14.9998 4.99975C14.4915 4.99975 14.0248 4.70808 13.7915 4.25808L13.1915 3.04975C12.8081 2.29142 11.9247 2.08301 11.0747 2.08301H9.16634C8.30801 2.08301 7.19148 2.29142 6.80815 3.04975L6.20815 4.25808C5.97481 4.70808 5.50815 4.99975 4.99981 4.99975C3.19148 4.99975 1.75815 6.52475 1.87481 8.32475L1.87481 15.2081C1.97481 16.9247 3.33315 18.3331 5.63315 18.3331Z" stroke="#BEBEC0" stroke-width="1.5" stroke-linecap="round" stroke-linejoin="round"/>
<path d="M10.0003 14.9997C11.492 14.9997 12.7087 13.783 12.7087 12.2913C12.7087 10.7997 11.492 9.58301 10.0003 9.58301C8.50866 9.58301 7.29199 10.7997 7.29199 12.2913C7.29199 13.783 8.50866 14.9997 10.0003 14.9997Z" stroke="#BEBEC0" stroke-width="1.5" stroke-linecap="round" stroke-linejoin="round"/>
</svg>
