<svg width="20" height="20" viewBox="0 0 20 20" fill="none" xmlns="http://www.w3.org/2000/svg">
    <path
        d="M5.63315 18.3336H14.583C16.883 18.3336 18.0165 16.9252 18.1248 15.2086V8.32524C18.2415 6.52524 16.8081 5.00024 14.9998 5.00024C14.4915 5.00024 14.0248 4.70857 13.7915 4.25857L13.1915 3.05024C12.8081 2.2919 11.9247 2.0835 11.0747 2.0835H9.16634C8.30801 2.0835 7.19148 2.2919 6.80815 3.05024L6.20815 4.25857C5.97481 4.70857 5.50815 5.00024 4.99981 5.00024C3.19148 5.00024 1.75815 6.52524 1.87481 8.32524L1.87481 15.2086C1.97481 16.9252 3.33315 18.3336 5.63315 18.3336Z"
        stroke="#363636" stroke-width="1.5" stroke-linecap="round" stroke-linejoin="round" />
    <path
        d="M10.0003 15.0002C11.492 15.0002 12.7087 13.7835 12.7087 12.2918C12.7087 10.8002 11.492 9.5835 10.0003 9.5835C8.50866 9.5835 7.29199 10.8002 7.29199 12.2918C7.29199 13.7835 8.50866 15.0002 10.0003 15.0002Z"
        stroke="#363636" stroke-width="1.5" stroke-linecap="round" stroke-linejoin="round" />
</svg>