<svg width="28" height="28" viewBox="0 0 28 28" fill="none" xmlns="http://www.w3.org/2000/svg">
<path d="M18.6668 14.875H9.3335C8.85516 14.875 8.4585 14.4783 8.4585 14C8.4585 13.5217 8.85516 13.125 9.3335 13.125H18.6668C19.1452 13.125 19.5418 13.5217 19.5418 14C19.5418 14.4783 19.1452 14.875 18.6668 14.875Z" fill="#9A9A9A"/>
<path d="M14 19.5404C13.5217 19.5404 13.125 19.1437 13.125 18.6654V9.33203C13.125 8.8537 13.5217 8.45703 14 8.45703C14.4783 8.45703 14.875 8.8537 14.875 9.33203V18.6654C14.875 19.1437 14.4783 19.5404 14 19.5404Z" fill="#9A9A9A"/>
<path d="M17.5002 26.5404H10.5002C4.16516 26.5404 1.4585 23.8337 1.4585 17.4987V10.4987C1.4585 4.1637 4.16516 1.45703 10.5002 1.45703H17.5002C23.8352 1.45703 26.5418 4.1637 26.5418 10.4987V17.4987C26.5418 23.8337 23.8352 26.5404 17.5002 26.5404ZM10.5002 3.20703C5.12183 3.20703 3.2085 5.12036 3.2085 10.4987V17.4987C3.2085 22.877 5.12183 24.7904 10.5002 24.7904H17.5002C22.8785 24.7904 24.7918 22.877 24.7918 17.4987V10.4987C24.7918 5.12036 22.8785 3.20703 17.5002 3.20703H10.5002Z" fill="#9A9A9A"/>
</svg>
