<svg width="32" height="32" viewBox="0 0 32 32" fill="none" xmlns="http://www.w3.org/2000/svg">
<rect width="32" height="32" rx="16" fill="#6E44FF"/>
<path d="M10.7602 25.0001H21.5C24.26 25.0001 25.6202 23.3101 25.7502 21.2501V12.9901C25.8902 10.8301 24.1702 9.00009 22.0002 9.00009C21.3902 9.00009 20.8302 8.65009 20.5502 8.11009L19.8302 6.66009C19.3702 5.75009 18.31 5.5 17.29 5.5H15C13.97 5.5 12.6302 5.75009 12.1702 6.66009L11.4502 8.11009C11.1702 8.65009 10.6102 9.00009 10.0002 9.00009C7.83017 9.00009 6.11017 10.8301 6.25017 12.9901L6.25017 21.2501C6.37017 23.3101 8.00017 25.0001 10.7602 25.0001Z" stroke="#FCFCFC" stroke-linecap="round" stroke-linejoin="round"/>
<path d="M16 21C17.79 21 19.25 19.54 19.25 17.75C19.25 15.96 17.79 14.5 16 14.5C14.21 14.5 12.75 15.96 12.75 17.75C12.75 19.54 14.21 21 16 21Z" stroke="#FCFCFC" stroke-linecap="round" stroke-linejoin="round"/>
</svg>
