<svg width="56" height="56" viewBox="0 0 56 56" fill="none" xmlns="http://www.w3.org/2000/svg">
<rect x="0.5" y="0.5" width="55" height="55" rx="27.5" fill="#FCFCFC"/>
<rect x="0.5" y="0.5" width="55" height="55" rx="27.5" stroke="#6E44FF"/>
<path d="M31.4916 19.666H24.5083C21.475 19.666 19.6666 21.4743 19.6666 24.5077V31.4827C19.6666 34.5244 21.475 36.3327 24.5083 36.3327H31.4833C34.5166 36.3327 36.325 34.5244 36.325 31.491V24.5077C36.3333 21.4743 34.525 19.666 31.4916 19.666ZM31.3333 28.6243H28.625V31.3327C28.625 31.6743 28.3416 31.9577 28 31.9577C27.6583 31.9577 27.375 31.6743 27.375 31.3327V28.6243H24.6666C24.325 28.6243 24.0416 28.341 24.0416 27.9993C24.0416 27.6577 24.325 27.3743 24.6666 27.3743H27.375V24.666C27.375 24.3243 27.6583 24.041 28 24.041C28.3416 24.041 28.625 24.3243 28.625 24.666V27.3743H31.3333C31.675 27.3743 31.9583 27.6577 31.9583 27.9993C31.9583 28.341 31.675 28.6243 31.3333 28.6243Z" fill="#6E44FF"/>
</svg>
