<svg width="32" height="32" viewBox="0 0 32 32" fill="none" xmlns="http://www.w3.org/2000/svg">
<path d="M23.7333 2.80016L10.4933 6.12016C8.55996 6.60017 6.59996 8.56016 6.11996 10.4935L2.79996 23.7335C1.79996 27.7335 4.25329 30.2002 8.26663 29.2002L21.5066 25.8935C23.4266 25.4135 25.4 23.4402 25.88 21.5202L29.2 8.26683C30.2 4.26683 27.7333 1.80016 23.7333 2.80016Z" stroke="#404040" stroke-width="1.5" stroke-linecap="round" stroke-linejoin="round"/>
<path d="M16.0002 20.6668C18.5775 20.6668 20.6668 18.5775 20.6668 16.0002C20.6668 13.4228 18.5775 11.3335 16.0002 11.3335C13.4228 11.3335 11.3335 13.4228 11.3335 16.0002C11.3335 18.5775 13.4228 20.6668 16.0002 20.6668Z" stroke="#404040" stroke-width="1.5" stroke-linecap="round" stroke-linejoin="round"/>
</svg>
