<svg width="25" height="24" viewBox="0 0 25 24" fill="none" xmlns="http://www.w3.org/2000/svg">
<path d="M9.5 22H15.5C20.5 22 22.5 20 22.5 15V9C22.5 4 20.5 2 15.5 2H9.5C4.5 2 2.5 4 2.5 9V15C2.5 20 4.5 22 9.5 22Z" stroke="#BEBEC0" stroke-linecap="round" stroke-linejoin="round"/>
<path d="M16 9.75C16.8284 9.75 17.5 9.07843 17.5 8.25C17.5 7.42157 16.8284 6.75 16 6.75C15.1716 6.75 14.5 7.42157 14.5 8.25C14.5 9.07843 15.1716 9.75 16 9.75Z" stroke="#BEBEC0" stroke-miterlimit="10" stroke-linecap="round" stroke-linejoin="round"/>
<path d="M9 9.75C9.82843 9.75 10.5 9.07843 10.5 8.25C10.5 7.42157 9.82843 6.75 9 6.75C8.17157 6.75 7.5 7.42157 7.5 8.25C7.5 9.07843 8.17157 9.75 9 9.75Z" stroke="#BEBEC0" stroke-miterlimit="10" stroke-linecap="round" stroke-linejoin="round"/>
<path d="M8.9 13.2969H16.1C16.6 13.2969 17 13.6969 17 14.1969C17 16.6869 14.99 18.6969 12.5 18.6969C10.01 18.6969 8 16.6869 8 14.1969C8 13.6969 8.4 13.2969 8.9 13.2969Z" stroke="#BEBEC0" stroke-miterlimit="10" stroke-linecap="round" stroke-linejoin="round"/>
</svg>
