<svg width="20" height="20" viewBox="0 0 20 20" fill="none" xmlns="http://www.w3.org/2000/svg">
<path d="M12.4166 1.66699H7.5833C7.01663 1.66699 6.21662 2.00033 5.81662 2.40033L2.39996 5.817C1.99996 6.217 1.66663 7.017 1.66663 7.58366V12.417C1.66663 12.9837 1.99996 13.7837 2.39996 14.1837L5.81662 17.6003C6.21662 18.0003 7.01663 18.3337 7.5833 18.3337H12.4166C12.9833 18.3337 13.7833 18.0003 14.1833 17.6003L17.6 14.1837C18 13.7837 18.3333 12.9837 18.3333 12.417V7.58366C18.3333 7.017 18 6.217 17.6 5.817L14.1833 2.40033C13.7833 2.00033 12.9833 1.66699 12.4166 1.66699Z" stroke="#D9D9D9" stroke-width="1.2" stroke-linecap="round" stroke-linejoin="round"/>
<path d="M4.1167 15.8995L15.9 4.11621" stroke="#D9D9D9" stroke-width="1.2" stroke-linecap="round" stroke-linejoin="round"/>
</svg>
