<svg width="24" height="24" viewBox="0 0 24 24" fill="none" xmlns="http://www.w3.org/2000/svg">
<path d="M9.22673 6.23747L14.8175 11.5567C14.8839 11.6201 14.931 11.6887 14.9588 11.7625C14.9867 11.8364 15.0004 11.9156 15 12C15 12.0844 14.9861 12.1636 14.9582 12.2375C14.9303 12.3113 14.8834 12.3799 14.8175 12.4433L9.22673 17.7784C9.07189 17.9261 8.87834 18 8.64608 18C8.41382 18 8.21475 17.9208 8.04885 17.7625C7.88295 17.6042 7.8 17.4195 7.8 17.2084C7.8 16.9974 7.88295 16.8127 8.04885 16.6544L12.9263 12L8.04885 7.34565C7.89401 7.19789 7.81659 7.01573 7.81659 6.79916C7.81659 6.58259 7.89954 6.39536 8.06544 6.23747C8.23134 6.07916 8.42488 6 8.64608 6C8.86728 6 9.06083 6.07916 9.22673 6.23747Z" fill="#F8F8F8"/>
</svg>
