<svg width="28" height="28" viewBox="0 0 28 28" fill="none" xmlns="http://www.w3.org/2000/svg">
<path d="M10.4987 25.6654H17.4987C23.332 25.6654 25.6654 23.332 25.6654 17.4987V10.4987C25.6654 4.66536 23.332 2.33203 17.4987 2.33203H10.4987C4.66536 2.33203 2.33203 4.66536 2.33203 10.4987V17.4987C2.33203 23.332 4.66536 25.6654 10.4987 25.6654Z" stroke="#BEBEC0" stroke-width="1.5" stroke-linecap="round" stroke-linejoin="round"/>
<path d="M10.5013 11.6667C11.79 11.6667 12.8346 10.622 12.8346 9.33333C12.8346 8.04467 11.79 7 10.5013 7C9.21264 7 8.16797 8.04467 8.16797 9.33333C8.16797 10.622 9.21264 11.6667 10.5013 11.6667Z" stroke="#BEBEC0" stroke-width="1.5" stroke-linecap="round" stroke-linejoin="round"/>
<path d="M3.11328 22.1073L8.86495 18.2457C9.78661 17.6273 11.1166 17.6973 11.9449 18.409L12.3299 18.7473C13.2399 19.529 14.7099 19.529 15.6199 18.7473L20.4733 14.5823C21.3833 13.8007 22.8533 13.8007 23.7633 14.5823L25.6649 16.2157" stroke="#BEBEC0" stroke-width="1.5" stroke-linecap="round" stroke-linejoin="round"/>
</svg>
