<svg width="28" height="28" viewBox="0 0 28 28" fill="none" xmlns="http://www.w3.org/2000/svg">
<path d="M9.91701 18C9.0687 18 8.35316 17.8414 7.7704 17.5242C7.18764 17.1996 6.74504 16.7386 6.4426 16.1411C6.14753 15.5436 6 14.8317 6 14.0055C6 13.1867 6.15122 12.4786 6.45367 11.8811C6.75611 11.2762 7.19502 10.8114 7.7704 10.4869C8.34578 10.1623 9.0355 10 9.83956 10C10.3928 10 10.9055 10.0811 11.3776 10.2434C11.8497 10.4057 12.2444 10.6381 12.5615 10.9405L12.1521 11.8368C11.7981 11.5417 11.4366 11.3315 11.0678 11.2061C10.6989 11.0733 10.2895 11.0069 9.83956 11.0069C8.97649 11.0069 8.31996 11.2688 7.86999 11.7925C7.42001 12.3089 7.19502 13.0466 7.19502 14.0055C7.19502 14.9866 7.4237 15.7317 7.88105 16.2407C8.34578 16.7497 9.03919 17.0041 9.96127 17.0041C10.5219 17.0041 11.0788 16.9119 11.6321 16.7275V14.6362H9.72891V13.7732H12.5947V17.4467C12.2628 17.609 11.8497 17.7418 11.3555 17.8451C10.8686 17.9484 10.3891 18 9.91701 18Z" fill="#BEBEC0"/>
<path d="M14.359 17.9004V10.0996H15.5098V17.9004H14.359Z" fill="#BEBEC0"/>
<path d="M17.309 17.9004V10.0996H22.2661V11.029H18.4597V13.5187H22.0337V14.4481H18.4597V17.9004H17.309Z" fill="#BEBEC0"/>
<rect x="1.75" y="1.75" width="24.5" height="24.5" rx="7.25" stroke="#BEBEC0" stroke-width="1.5"/>
</svg>
