<svg width="20" height="20" viewBox="0 0 20 20" fill="none" xmlns="http://www.w3.org/2000/svg">
<g clip-path="url(#clip0_43_80916)">
<path d="M5.91701 14C5.0687 14 4.35316 13.8414 3.7704 13.5242C3.18764 13.1996 2.74504 12.7386 2.4426 12.1411C2.14753 11.5436 2 10.8317 2 10.0055C2 9.18672 2.15122 8.47856 2.45367 7.88105C2.75611 7.27616 3.19502 6.81143 3.7704 6.48686C4.34578 6.16229 5.0355 6 5.83956 6C6.39281 6 6.90549 6.08114 7.37759 6.24343C7.8497 6.40572 8.24435 6.63808 8.56155 6.94053L8.15214 7.83679C7.79806 7.54172 7.43661 7.33149 7.06777 7.20609C6.69894 7.07331 6.28953 7.00692 5.83956 7.00692C4.97649 7.00692 4.31996 7.26879 3.86999 7.79253C3.42001 8.3089 3.19502 9.04657 3.19502 10.0055C3.19502 10.9866 3.4237 11.7317 3.88105 12.2407C4.34578 12.7497 5.03919 13.0041 5.96127 13.0041C6.5219 13.0041 7.07884 12.9119 7.63209 12.7275V10.6362H5.72891V9.77317H8.59474V13.4467C8.26279 13.609 7.8497 13.7418 7.35546 13.8451C6.8686 13.9484 6.38912 14 5.91701 14Z" fill="#363636"/>
<path d="M10.359 13.9004V6.09959H11.5098V13.9004H10.359Z" fill="#363636"/>
<path d="M13.309 13.9004V6.09959H18.2661V7.02905H14.4597V9.51867H18.0337V10.4481H14.4597V13.9004H13.309Z" fill="#363636"/>
<rect x="-2.25" y="-2.25" width="24.5" height="24.5" rx="7.25" stroke="#363636" stroke-width="1.5"/>
</g>
<defs>
<clipPath id="clip0_43_80916">
<rect width="20" height="20" rx="2" fill="white"/>
</clipPath>
</defs>
</svg>
