<svg width="16" height="16" viewBox="0 0 16 16" fill="none" xmlns="http://www.w3.org/2000/svg">
<path d="M8.00016 14.6693C11.6821 14.6693 14.6668 11.6845 14.6668 8.0026C14.6668 4.32071 11.6821 1.33594 8.00016 1.33594C4.31826 1.33594 1.3335 4.32071 1.3335 8.0026C1.3335 11.6845 4.31826 14.6693 8.00016 14.6693Z" stroke="#BEBEC0" stroke-linecap="round" stroke-linejoin="round"/>
<path d="M5.33324 2H5.9999C4.6999 5.89333 4.6999 10.1067 5.9999 14H5.33324" stroke="#BEBEC0" stroke-linecap="round" stroke-linejoin="round"/>
<path d="M10 2C11.3 5.89333 11.3 10.1067 10 14" stroke="#BEBEC0" stroke-linecap="round" stroke-linejoin="round"/>
<path d="M2 10.6667V10C5.89333 11.3 10.1067 11.3 14 10V10.6667" stroke="#BEBEC0" stroke-linecap="round" stroke-linejoin="round"/>
<path d="M2 5.99844C5.89333 4.69844 10.1067 4.69844 14 5.99844" stroke="#BEBEC0" stroke-linecap="round" stroke-linejoin="round"/>
</svg>
