<svg width="16" height="16" viewBox="0 0 16 16" fill="none" xmlns="http://www.w3.org/2000/svg">
<path d="M7.9987 14.6667C11.6806 14.6667 14.6654 11.6819 14.6654 8.00004C14.6654 4.31814 11.6806 1.33337 7.9987 1.33337C4.3168 1.33337 1.33203 4.31814 1.33203 8.00004C1.33203 11.6819 4.3168 14.6667 7.9987 14.6667Z" stroke="#6E44FF" stroke-linecap="round" stroke-linejoin="round"/>
<path d="M5.33177 2H5.99844C4.69844 5.89333 4.69844 10.1067 5.99844 14H5.33177" stroke="#6E44FF" stroke-linecap="round" stroke-linejoin="round"/>
<path d="M10 2C11.3 5.89333 11.3 10.1067 10 14" stroke="#6E44FF" stroke-linecap="round" stroke-linejoin="round"/>
<path d="M2 10.6667V10C5.89333 11.3 10.1067 11.3 14 10V10.6667" stroke="#6E44FF" stroke-linecap="round" stroke-linejoin="round"/>
<path d="M2 6.00002C5.89333 4.70002 10.1067 4.70002 14 6.00002" stroke="#6E44FF" stroke-linecap="round" stroke-linejoin="round"/>
</svg>
