<svg width="24" height="24" viewBox="0 0 24 24" fill="none" xmlns="http://www.w3.org/2000/svg">
<g clip-path="url(#clip0_1_10296)">
<path d="M23.9875 12.2245C23.9875 11.2413 23.9059 10.5238 23.7292 9.77966H12.2393V14.2176H18.9836C18.8477 15.3205 18.1134 16.9815 16.4817 18.0976L16.4588 18.2462L20.0917 20.9964L20.3434 21.0209C22.6549 18.9347 23.9875 15.8653 23.9875 12.2245Z" fill="#4285F4"/>
<path d="M12.2391 23.9176C15.5433 23.9176 18.3171 22.8545 20.3432 21.0209L16.4815 18.0976C15.4481 18.8018 14.0611 19.2934 12.2391 19.2934C9.00291 19.2934 6.25622 17.2074 5.27711 14.324L5.13359 14.3359L1.35604 17.1927L1.30664 17.3269C3.31906 21.2334 7.45273 23.9176 12.2391 23.9176Z" fill="#34A853"/>
<path d="M5.27678 14.324C5.01843 13.5799 4.86891 12.7826 4.86891 11.9588C4.86891 11.1349 5.01843 10.3377 5.26318 9.5936L5.25634 9.43513L1.43145 6.53241L1.30631 6.59058C0.476896 8.21168 0.000976562 10.0321 0.000976562 11.9588C0.000976562 13.8855 0.476896 15.7058 1.30631 17.3269L5.27678 14.324Z" fill="#FBBC05"/>
<path d="M12.2391 4.62403C14.5371 4.62403 16.0871 5.59402 16.971 6.40461L20.4248 3.10928C18.3036 1.1826 15.5433 0 12.2391 0C7.45272 0 3.31906 2.68406 1.30664 6.59056L5.26351 9.59359C6.25622 6.7102 9.00291 4.62403 12.2391 4.62403Z" fill="#EB4335"/>
</g>
<defs>
<clipPath id="clip0_1_10296">
<rect width="24" height="24" fill="white"/>
</clipPath>
</defs>
</svg>
