<svg width="21" height="20" viewBox="0 0 21 20" fill="none" xmlns="http://www.w3.org/2000/svg">
<path d="M19.1667 5.20964V9.45961C19.1667 10.5179 18.8167 11.4096 18.1917 12.0263C17.575 12.6513 16.6833 13.0013 15.625 13.0013V14.5096C15.625 15.0763 14.9917 15.418 14.525 15.1013L13.7167 14.568C13.7917 14.3096 13.825 14.0263 13.825 13.7263V10.3347C13.825 8.63466 12.6917 7.5013 10.9917 7.5013H5.33333C5.21666 7.5013 5.10833 7.50965 5 7.51798V5.20964C5 3.08464 6.41667 1.66797 8.54167 1.66797H15.625C17.75 1.66797 19.1667 3.08464 19.1667 5.20964Z" stroke="#6E44FF" stroke-miterlimit="10" stroke-linecap="round" stroke-linejoin="round"/>
<path d="M13.825 10.3334V13.725C13.825 14.025 13.7917 14.3083 13.7167 14.5667C13.4083 15.7917 12.3917 16.5583 10.9917 16.5583H8.725L6.20833 18.2333C5.83333 18.4917 5.33333 18.2167 5.33333 17.7667V16.5583C4.48333 16.5583 3.775 16.275 3.28334 15.7833C2.78334 15.2833 2.5 14.575 2.5 13.725V10.3334C2.5 8.75002 3.48333 7.65835 5 7.51668C5.10833 7.50835 5.21666 7.5 5.33333 7.5H10.9917C12.6917 7.5 13.825 8.63335 13.825 10.3334Z" stroke="#6E44FF" stroke-miterlimit="10" stroke-linecap="round" stroke-linejoin="round"/>
</svg>
