<svg width="40" height="41" viewBox="0 0 40 41" fill="none" xmlns="http://www.w3.org/2000/svg">
<path d="M31.6667 19.5083V11.575C31.6667 9.825 30.92 9.125 29.065 9.125H24.3517C22.4967 9.125 21.75 9.825 21.75 11.575V19.5083C21.75 21.2583 22.4967 21.9583 24.3517 21.9583H29.065C30.92 21.9583 31.6667 21.2583 31.6667 19.5083Z" stroke="#BEBEC0" stroke-linecap="round" stroke-linejoin="round"/>
<path d="M31.6667 30.007V27.907C31.6667 26.157 30.92 25.457 29.065 25.457H24.3517C22.4967 25.457 21.75 26.157 21.75 27.907V30.007C21.75 31.757 22.4967 32.457 24.3517 32.457H29.065C30.92 32.457 31.6667 31.757 31.6667 30.007Z" stroke="#BEBEC0" stroke-linecap="round" stroke-linejoin="round"/>
<path d="M18.2487 22.075V30.0083C18.2487 31.7583 17.502 32.4583 15.647 32.4583H10.9337C9.0787 32.4583 8.33203 31.7583 8.33203 30.0083V22.075C8.33203 20.325 9.0787 19.625 10.9337 19.625H15.647C17.502 19.625 18.2487 20.325 18.2487 22.075Z" stroke="#BEBEC0" stroke-linecap="round" stroke-linejoin="round"/>
<path d="M18.2487 11.575V13.675C18.2487 15.425 17.502 16.125 15.647 16.125H10.9337C9.0787 16.125 8.33203 15.425 8.33203 13.675V11.575C8.33203 9.825 9.0787 9.125 10.9337 9.125H15.647C17.502 9.125 18.2487 9.825 18.2487 11.575Z" stroke="#BEBEC0" stroke-linecap="round" stroke-linejoin="round"/>
</svg>
