<svg width="40" height="41" viewBox="0 0 40 41" fill="none" xmlns="http://www.w3.org/2000/svg">
<path d="M16.4987 32.4583H23.4987C29.332 32.4583 31.6654 30.125 31.6654 24.2917V17.2917C31.6654 11.4583 29.332 9.125 23.4987 9.125H16.4987C10.6654 9.125 8.33203 11.4583 8.33203 17.2917V24.2917C8.33203 30.125 10.6654 32.4583 16.4987 32.4583Z" stroke="#BEBEC0" stroke-linecap="round" stroke-linejoin="round"/>
<path d="M16.6172 20.7917V19.0651C16.6172 16.8367 18.1922 15.9384 20.1172 17.0467L21.6105 17.9101L23.1039 18.7734C25.0289 19.8817 25.0289 21.7017 23.1039 22.8101L21.6105 23.6734L20.1172 24.5367C18.1922 25.6451 16.6172 24.7351 16.6172 22.5184V20.7917Z" stroke="#BEBEC0" stroke-miterlimit="10" stroke-linecap="round" stroke-linejoin="round"/>
</svg>
