<svg width="32" height="32" viewBox="0 0 32 32" fill="none" xmlns="http://www.w3.org/2000/svg">
<path d="M27.2925 8.27239L27.2923 8.27226L19.6128 2.8993C17.1605 1.18112 13.4663 1.27272 11.1065 3.10114L11.1038 3.10329L4.42398 8.31645C4.42391 8.31651 4.42384 8.31657 4.42376 8.31662C3.61008 8.95136 2.92738 9.87734 2.44853 10.8499C1.9699 11.822 1.65234 12.9272 1.65234 13.9583V23.1583C1.65234 27.1078 4.85725 30.3316 8.81234 30.3316H23.1857C27.138 30.3316 30.3457 27.1239 30.3457 23.1716V14.1316C30.3457 13.0331 29.9973 11.8711 29.4688 10.8588C28.9404 9.84661 28.1874 8.89881 27.2925 8.27239Z" stroke="#6E44FF" stroke-width="2"/>
</svg>
