<svg width="16" height="16" viewBox="0 0 16 16" fill="none" xmlns="http://www.w3.org/2000/svg">
<path d="M14.3733 7.1607L13.4733 6.10737C13.3067 5.90737 13.1667 5.53404 13.1667 5.26737V4.13404C13.1667 3.42737 12.5867 2.84737 11.88 2.84737H10.7467C10.48 2.84737 10.1 2.70737 9.9 2.5407L8.84667 1.6407C8.38667 1.24737 7.63334 1.24737 7.17334 1.6407L6.10667 2.5407C5.90667 2.70737 5.53334 2.84737 5.26667 2.84737H4.11334C3.40667 2.84737 2.82667 3.42737 2.82667 4.13404V5.26737C2.82667 5.52737 2.69334 5.9007 2.52667 6.1007L1.62667 7.1607C1.24 7.62737 1.24 8.37404 1.62667 8.82737L2.52667 9.88737C2.69334 10.0807 2.82667 10.4607 2.82667 10.7207V11.8607C2.82667 12.5674 3.40667 13.1474 4.11334 13.1474H5.27334C5.53334 13.1474 5.91334 13.2874 6.11334 13.454L7.16667 14.354C7.62667 14.7474 8.38 14.7474 8.84 14.354L9.89334 13.454C10.0933 13.2874 10.4667 13.1474 10.7333 13.1474H11.8667C12.5733 13.1474 13.1533 12.5674 13.1533 11.8607V10.7274C13.1533 10.4607 13.2933 10.0874 13.46 9.88737L14.36 8.83404C14.7667 8.3807 14.7667 7.62737 14.3733 7.1607ZM7.5 5.4207C7.5 5.14737 7.72667 4.9207 8 4.9207C8.27334 4.9207 8.5 5.14737 8.5 5.4207V8.6407C8.5 8.91404 8.27334 9.1407 8 9.1407C7.72667 9.1407 7.5 8.91404 7.5 8.6407V5.4207ZM8 11.2474C7.63334 11.2474 7.33334 10.9474 7.33334 10.5807C7.33334 10.214 7.62667 9.91404 8 9.91404C8.36667 9.91404 8.66667 10.214 8.66667 10.5807C8.66667 10.9474 8.37334 11.2474 8 11.2474Z" fill="#F4323E"/>
</svg>
