<svg width="32" height="32" viewBox="0 0 32 32" fill="none" xmlns="http://www.w3.org/2000/svg">
<path opacity="0.4" d="M10.4132 29.3335L21.5866 29.3335C26.4399 29.3335 29.3333 26.4402 29.3333 21.5868L29.3333 10.4268C29.3332 5.56016 26.4399 2.66683 21.5866 2.66683L10.4266 2.66683C5.57325 2.66683 2.67992 5.56016 2.67992 10.4135L2.67992 21.5868C2.66658 26.4402 5.55992 29.3335 10.4132 29.3335Z" fill="#FCFCFC" fill-opacity="0.5"/>
<path d="M17.6801 10.2931C17.9334 10.2931 18.1868 10.3865 18.3868 10.5865C18.7734 10.9731 18.7734 11.6131 18.3868 11.9998L14.3868 15.9998L18.3868 19.9998C18.7734 20.3865 18.7734 21.0265 18.3868 21.4131C18.0001 21.7998 17.3601 21.7998 16.9734 21.4131L12.2668 16.7065C11.8801 16.3198 11.8801 15.6798 12.2668 15.2931L16.9734 10.5865C17.1734 10.3865 17.4268 10.2931 17.6801 10.2931Z" fill="white"/>
</svg>
