<svg width="28" height="28" viewBox="0 0 28 28" fill="none" xmlns="http://www.w3.org/2000/svg">
<path d="M7.8867 25.6666H20.4165C23.6365 25.6666 25.2234 23.6949 25.375 21.2916V11.6549C25.5384 9.13494 23.5317 6.99994 21 6.99994C20.2884 6.99994 19.635 6.59161 19.3084 5.96161L18.4684 4.26994C17.9317 3.20828 16.6948 2.9165 15.5048 2.9165H12.8332C11.6315 2.9165 10.0684 3.20828 9.5317 4.26994L8.6917 5.96161C8.36503 6.59161 7.7117 6.99994 7.00003 6.99994C4.46837 6.99994 2.4617 9.13494 2.62503 11.6549L2.62503 21.2916C2.76503 23.6949 4.6667 25.6666 7.8867 25.6666Z" stroke="#404040" stroke-width="1.5" stroke-linecap="round" stroke-linejoin="round"/>
<path d="M14.0002 20.9998C16.0885 20.9998 17.7918 19.2965 17.7918 17.2082C17.7918 15.1198 16.0885 13.4165 14.0002 13.4165C11.9118 13.4165 10.2085 15.1198 10.2085 17.2082C10.2085 19.2965 11.9118 20.9998 14.0002 20.9998Z" stroke="#404040" stroke-width="1.5" stroke-linecap="round" stroke-linejoin="round"/>
</svg>
