<svg width="20" height="20" viewBox="0 0 20 20" fill="none" xmlns="http://www.w3.org/2000/svg">
<path d="M7.08341 15.8337H6.66675C3.33341 15.8337 1.66675 15.0003 1.66675 10.8337V6.66699C1.66675 3.33366 3.33341 1.66699 6.66675 1.66699H13.3334C16.6667 1.66699 18.3334 3.33366 18.3334 6.66699V10.8337C18.3334 14.167 16.6667 15.8337 13.3334 15.8337H12.9167C12.6584 15.8337 12.4084 15.9587 12.2501 16.167L11.0001 17.8337C10.4501 18.567 9.55008 18.567 9.00008 17.8337L7.75008 16.167C7.61675 15.9837 7.30841 15.8337 7.08341 15.8337Z" stroke="#404040" stroke-miterlimit="10" stroke-linecap="round" stroke-linejoin="round"/>
<path d="M5.83325 6.66699H14.1666" stroke="#404040" stroke-linecap="round" stroke-linejoin="round"/>
<path d="M5.83325 10.833H10.8333" stroke="#404040" stroke-linecap="round" stroke-linejoin="round"/>
</svg>
