<svg width="28" height="28" viewBox="0 0 28 28" fill="none" xmlns="http://www.w3.org/2000/svg">
<path d="M10.5002 25.6668H17.5002C23.3335 25.6668 25.6668 23.3335 25.6668 17.5002V10.5002C25.6668 4.66683 23.3335 2.3335 17.5002 2.3335H10.5002C4.66683 2.3335 2.3335 4.66683 2.3335 10.5002V17.5002C2.3335 23.3335 4.66683 25.6668 10.5002 25.6668Z" stroke="#404040" stroke-width="1.5" stroke-linecap="round" stroke-linejoin="round"/>
<path d="M10.4998 11.6667C11.7885 11.6667 12.8332 10.622 12.8332 9.33333C12.8332 8.04467 11.7885 7 10.4998 7C9.21117 7 8.1665 8.04467 8.1665 9.33333C8.1665 10.622 9.21117 11.6667 10.4998 11.6667Z" stroke="#404040" stroke-width="1.5" stroke-linecap="round" stroke-linejoin="round"/>
<path d="M3.11523 22.1083L8.8669 18.2467C9.78857 17.6283 11.1186 17.6983 11.9469 18.41L12.3319 18.7483C13.2419 19.53 14.7119 19.53 15.6219 18.7483L20.4752 14.5833C21.3852 13.8017 22.8552 13.8017 23.7652 14.5833L25.6669 16.2167" stroke="#404040" stroke-width="1.5" stroke-linecap="round" stroke-linejoin="round"/>
</svg>
