<svg width="28" height="29" viewBox="0 0 28 29" fill="none" xmlns="http://www.w3.org/2000/svg">
<path d="M25.6667 13.5083V5.575C25.6667 3.825 24.92 3.125 23.065 3.125H18.3517C16.4967 3.125 15.75 3.825 15.75 5.575V13.5083C15.75 15.2583 16.4967 15.9583 18.3517 15.9583H23.065C24.92 15.9583 25.6667 15.2583 25.6667 13.5083Z" stroke="#363636" stroke-linecap="round" stroke-linejoin="round"/>
<path d="M25.6667 24.007V21.907C25.6667 20.157 24.92 19.457 23.065 19.457H18.3517C16.4967 19.457 15.75 20.157 15.75 21.907V24.007C15.75 25.757 16.4967 26.457 18.3517 26.457H23.065C24.92 26.457 25.6667 25.757 25.6667 24.007Z" stroke="#363636" stroke-linecap="round" stroke-linejoin="round"/>
<path d="M12.2487 16.075V24.0083C12.2487 25.7583 11.502 26.4583 9.64703 26.4583H4.9337C3.0787 26.4583 2.33203 25.7583 2.33203 24.0083V16.075C2.33203 14.325 3.0787 13.625 4.9337 13.625H9.64703C11.502 13.625 12.2487 14.325 12.2487 16.075Z" stroke="#363636" stroke-linecap="round" stroke-linejoin="round"/>
<path d="M12.2487 5.575V7.675C12.2487 9.425 11.502 10.125 9.64703 10.125H4.9337C3.0787 10.125 2.33203 9.425 2.33203 7.675V5.575C2.33203 3.825 3.0787 3.125 4.9337 3.125H9.64703C11.502 3.125 12.2487 3.825 12.2487 5.575Z" stroke="#363636" stroke-linecap="round" stroke-linejoin="round"/>
</svg>
