<svg width="28" height="29" viewBox="0 0 28 29" fill="none" xmlns="http://www.w3.org/2000/svg">
<path d="M10.4987 26.4583H17.4987C23.332 26.4583 25.6654 24.125 25.6654 18.2917V11.2917C25.6654 5.45833 23.332 3.125 17.4987 3.125H10.4987C4.66536 3.125 2.33203 5.45833 2.33203 11.2917V18.2917C2.33203 24.125 4.66536 26.4583 10.4987 26.4583Z" stroke="#696969" stroke-linecap="round" stroke-linejoin="round"/>
<path d="M10.6172 14.7917V13.0651C10.6172 10.8367 12.1922 9.9384 14.1172 11.0467L15.6105 11.9101L17.1039 12.7734C19.0289 13.8817 19.0289 15.7017 17.1039 16.8101L15.6105 17.6734L14.1172 18.5367C12.1922 19.6451 10.6172 18.7351 10.6172 16.5184V14.7917Z" stroke="#696969" stroke-miterlimit="10" stroke-linecap="round" stroke-linejoin="round"/>
</svg>
