<svg width="24" height="24" viewBox="0 0 24 24" fill="none" xmlns="http://www.w3.org/2000/svg">
<path d="M14 4C14 2.89455 13.1055 2 12 2C10.8945 2 10 2.89455 10 4C10 5.10545 10.8945 6 12 6C13.1055 6 14 5.10545 14 4Z" fill="#696969"/>
<path d="M14 10C14 8.89455 13.1055 8 12 8C10.8945 8 10 8.89455 10 10C10 11.1055 10.8945 12 12 12C13.1055 12 14 11.1055 14 10Z" fill="#696969"/>
<path d="M14 16C14 14.8945 13.1055 14 12 14C10.8945 14 10 14.8945 10 16C10 17.1055 10.8945 18 12 18C13.1055 18 14 17.1055 14 16Z" fill="#696969"/>
</svg>
