<svg width="120" height="120" viewBox="0 0 120 120" fill="none" xmlns="http://www.w3.org/2000/svg">
<path d="M107.8 53.7L101 45.8C99.7 44.3 98.65 41.5 98.65 39.5V31C98.65 25.7 94.3 21.35 89 21.35H80.5C78.55 21.35 75.7 20.3 74.2 19L66.3 12.2C62.85 9.24999 57.2 9.24999 53.7 12.2L45.85 19.05C44.35 20.3 41.5 21.35 39.55 21.35H30.9C25.6 21.35 21.25 25.7 21.25 31V39.55C21.25 41.5 20.2 44.3 18.95 45.8L12.2 53.75C9.30002 57.2 9.30002 62.8 12.2 66.25L18.95 74.2C20.2 75.7 21.25 78.5 21.25 80.45V89C21.25 94.3 25.6 98.65 30.9 98.65H39.55C41.5 98.65 44.35 99.7 45.85 101L53.75 107.8C57.2 110.75 62.85 110.75 66.35 107.8L74.25 101C75.75 99.7 78.55 98.65 80.55 98.65H89.05C94.35 98.65 98.7 94.3 98.7 89V80.5C98.7 78.55 99.75 75.7 101.05 74.2L107.85 66.3C110.75 62.85 110.75 57.15 107.8 53.7ZM80.8 50.55L56.65 74.7C55.95 75.4 55 75.8 54 75.8C53 75.8 52.05 75.4 51.35 74.7L39.25 62.6C37.8 61.15 37.8 58.75 39.25 57.3C40.7 55.85 43.1 55.85 44.55 57.3L54 66.75L75.5 45.25C76.95 43.8 79.35 43.8 80.8 45.25C82.25 46.7 82.25 49.1 80.8 50.55Z" fill="#FCFCFC"/>
</svg>
