<svg width="142" height="56" viewBox="0 0 142 56" fill="none" xmlns="http://www.w3.org/2000/svg">
<path d="M28.5748 26.68C31.3618 27.85 32.888 30.19 32.888 33.01C32.888 37.51 28.9066 40 24.6598 40C24.6598 40 24.6598 40 24.6266 40V35.68C24.6598 35.68 24.6598 35.68 24.6598 35.68C26.4182 35.68 27.9776 34.6 27.9776 33.01C27.9776 31.24 26.1528 30.16 24.6598 30.1C24.4276 30.1 22.6359 30.1 20.7116 29.29C17.9578 28.15 16.3984 26.02 16.3984 23.23C16.3984 18.73 20.413 16 24.6598 16C29.2052 16 32.7221 18.76 32.7885 22.84C32.8216 22.93 32.6557 23.08 32.4235 23.08H28.2762C28.0772 23.08 27.9113 22.93 27.9113 22.84C27.8449 21.13 26.3851 20.32 24.6598 20.32C22.835 20.32 21.342 21.31 21.342 23.23C21.342 24.97 22.9677 25.87 24.6598 25.87C24.8257 25.87 26.6837 25.87 28.5748 26.68Z" fill="#6E44FF"/>
<path d="M47.6676 28.06C47.6676 29.29 46.5727 30.31 45.1792 30.31C43.7857 30.31 42.6908 29.29 42.6908 28.06C42.6908 26.8 43.7857 25.78 45.1792 25.78C46.5727 25.78 47.6676 26.8 47.6676 28.06ZM57.9528 27.97C57.9528 33.97 53.6728 40 45.2124 40C36.6192 40 32.4056 33.97 32.4056 27.97C32.4056 22 36.6192 16 45.2124 16C53.6728 16 57.9528 22 57.9528 27.97ZM52.9761 28.06C52.9761 24.13 50.355 20.23 45.2124 20.23C40.0034 20.23 37.4155 24.13 37.4155 28.06C37.4155 31.93 40.0034 35.8 45.2124 35.8C50.355 35.8 52.9761 31.93 52.9761 28.06Z" fill="#6E44FF"/>
<path d="M73.0362 35.59H78.1124V39.73C78.1124 39.85 77.9797 40 77.7475 40H73.4343C66.8319 40 57.8737 38.26 57.8737 28C57.8737 17.35 66.9314 16 73.4343 16H77.7475C77.9797 16 78.1124 16.15 78.1124 16.27V25.69H73.0362V20.38C67.2632 20.11 62.9832 22.3 62.9832 28C62.9832 35.41 69.8179 35.71 73.0362 35.59Z" fill="#6E44FF"/>
<path d="M93.0634 28.06C93.0634 29.29 91.9685 30.31 90.575 30.31C89.1815 30.31 88.0866 29.29 88.0866 28.06C88.0866 26.8 89.1815 25.78 90.575 25.78C91.9685 25.78 93.0634 26.8 93.0634 28.06ZM103.349 27.97C103.349 33.97 99.0686 40 90.6082 40C82.015 40 77.8014 33.97 77.8014 27.97C77.8014 22 82.015 16 90.6082 16C99.0686 16 103.349 22 103.349 27.97ZM98.3719 28.06C98.3719 24.13 95.7508 20.23 90.6082 20.23C85.3992 20.23 82.8113 24.13 82.8113 28.06C82.8113 31.93 85.3992 35.8 90.6082 35.8C95.7508 35.8 98.3719 31.93 98.3719 28.06Z" fill="#6E44FF"/>
<path d="M125.233 16C125.466 16 125.598 16.15 125.598 16.27V39.73C125.598 39.85 125.466 40 125.233 40H120.854C120.788 40 120.589 39.97 120.555 39.91L108.346 24.1V34.24H103.27V16.27C103.27 16.15 103.435 16 103.601 16H108.014C108.08 16 108.279 16.03 108.313 16.09L120.555 31.9V16.27C120.555 16.15 120.721 16 120.953 16H125.233Z" fill="#6E44FF"/>
</svg>
