<svg width="32" height="32" viewBox="0 0 32 32" fill="none" xmlns="http://www.w3.org/2000/svg">
<path d="M23.9732 14.3867V19.72C23.9732 20.0667 23.9598 20.4 23.9198 20.72C23.6132 24.32 21.4932 26.1066 17.5865 26.1066H17.0532C16.7198 26.1066 16.3998 26.2667 16.1998 26.5333L14.5999 28.6667C13.8932 29.6133 12.7465 29.6133 12.0398 28.6667L10.4398 26.5333C10.2665 26.3067 9.87984 26.1066 9.58651 26.1066H9.05318C4.79985 26.1066 2.6665 25.0533 2.6665 19.72V14.3867C2.6665 10.48 4.46652 8.36001 8.05318 8.05334C8.37318 8.01334 8.70652 8 9.05318 8H17.5865C21.8398 8 23.9732 10.1333 23.9732 14.3867Z" stroke="#404040" stroke-width="1.5" stroke-miterlimit="10" stroke-linecap="round" stroke-linejoin="round"/>
<path d="M29.3066 9.05318V14.3865C29.3066 18.3065 27.5065 20.4132 23.9199 20.7198C23.9599 20.3998 23.9732 20.0665 23.9732 19.7198V14.3865C23.9732 10.1332 21.8399 7.99984 17.5865 7.99984H9.05322C8.70656 7.99984 8.37322 8.01318 8.05322 8.05318C8.35989 4.46652 10.4799 2.6665 14.3866 2.6665H22.9199C27.1732 2.6665 29.3066 4.79985 29.3066 9.05318Z" stroke="#404040" stroke-width="1.5" stroke-miterlimit="10" stroke-linecap="round" stroke-linejoin="round"/>
<path d="M17.9942 17.6667H18.0062" stroke="#404040" stroke-width="2" stroke-linecap="round" stroke-linejoin="round"/>
<path d="M13.3272 17.6667H13.3392" stroke="#404040" stroke-width="2" stroke-linecap="round" stroke-linejoin="round"/>
<path d="M8.66067 17.6667H8.67267" stroke="#404040" stroke-width="2" stroke-linecap="round" stroke-linejoin="round"/>
</svg>
