<svg width="32" height="32" viewBox="0 0 32 32" fill="none" xmlns="http://www.w3.org/2000/svg">
<path d="M23.9737 14.3867V19.72C23.9737 20.0667 23.9603 20.4 23.9203 20.72C23.6137 24.32 21.4937 26.1066 17.587 26.1066H17.0537C16.7203 26.1066 16.4003 26.2667 16.2003 26.5333L14.6003 28.6667C13.8937 29.6133 12.747 29.6133 12.0403 28.6667L10.4403 26.5333C10.267 26.3067 9.88033 26.1066 9.587 26.1066H9.05367C4.80034 26.1066 2.66699 25.0533 2.66699 19.72V14.3867C2.66699 10.48 4.467 8.36001 8.05367 8.05334C8.37367 8.01334 8.707 8 9.05367 8H17.587C21.8403 8 23.9737 10.1333 23.9737 14.3867Z" stroke="#6E44FF" stroke-width="1.5" stroke-miterlimit="10" stroke-linecap="round" stroke-linejoin="round"/>
<path d="M29.307 9.05074V14.3841C29.307 18.3041 27.507 20.4107 23.9204 20.7174C23.9604 20.3974 23.9737 20.0641 23.9737 19.7174V14.3841C23.9737 10.1307 21.8404 7.9974 17.587 7.9974H9.05371C8.70704 7.9974 8.37371 8.01074 8.05371 8.05074C8.36038 4.46407 10.4804 2.66406 14.387 2.66406H22.9204C27.1737 2.66406 29.307 4.79741 29.307 9.05074Z" stroke="#6E44FF" stroke-width="1.5" stroke-miterlimit="10" stroke-linecap="round" stroke-linejoin="round"/>
<path d="M17.9937 17.6667H18.0057" stroke="#6E44FF" stroke-width="2" stroke-linecap="round" stroke-linejoin="round"/>
<path d="M13.3277 17.6667H13.3397" stroke="#6E44FF" stroke-width="2" stroke-linecap="round" stroke-linejoin="round"/>
<path d="M8.66067 17.6667H8.67267" stroke="#6E44FF" stroke-width="2" stroke-linecap="round" stroke-linejoin="round"/>
</svg>
