<svg width="103" height="102" viewBox="0 0 103 102" fill="none" xmlns="http://www.w3.org/2000/svg">
<rect x="2" y="1.5" width="99" height="99" rx="49.5" fill="#BEBEC0" stroke="#191622" stroke-width="3"/>
<path d="M51.5 51C57.0228 51 61.5 46.5228 61.5 41C61.5 35.4772 57.0228 31 51.5 31C45.9772 31 41.5 35.4772 41.5 41C41.5 46.5228 45.9772 51 51.5 51Z" fill="#FCFCFC"/>
<path d="M51.5003 56C41.4803 56 33.3203 62.72 33.3203 71C33.3203 71.56 33.7603 72 34.3203 72H68.6803C69.2403 72 69.6803 71.56 69.6803 71C69.6803 62.72 61.5203 56 51.5003 56Z" fill="#FCFCFC"/>
</svg>
