<svg width="24" height="24" viewBox="0 0 24 24" fill="none" xmlns="http://www.w3.org/2000/svg">
<path d="M21.6602 10.44L20.6802 14.62C19.8402 18.23 18.1802 19.69 15.0602 19.39C14.5602 19.35 14.0202 19.26 13.4402 19.12L11.7602 18.72C7.59018 17.73 6.30018 15.67 7.28018 11.49L8.26018 7.30001C8.46018 6.45001 8.70018 5.71001 9.00018 5.10001C10.1702 2.68001 12.1602 2.03001 15.5002 2.82001L17.1702 3.21001C21.3602 4.19001 22.6402 6.26001 21.6602 10.44Z" stroke="#363636" stroke-linecap="round" stroke-linejoin="round"/>
<path d="M15.0584 19.3901C14.4384 19.8101 13.6584 20.1601 12.7084 20.4701L11.1284 20.9901C7.15839 22.2701 5.06839 21.2001 3.77839 17.2301L2.49839 13.2801C1.21839 9.3101 2.27839 7.2101 6.24839 5.9301L7.82839 5.4101C8.23839 5.2801 8.62839 5.1701 8.99839 5.1001C8.69839 5.7101 8.45839 6.4501 8.25839 7.3001L7.27839 11.4901C6.29839 15.6701 7.58839 17.7301 11.7584 18.7201L13.4384 19.1201C14.0184 19.2601 14.5584 19.3501 15.0584 19.3901Z" stroke="#363636" stroke-linecap="round" stroke-linejoin="round"/>
</svg>
