<svg width="32" height="32" viewBox="0 0 32 32" fill="none" xmlns="http://www.w3.org/2000/svg">
<path d="M16.0248 3.87891C11.6115 3.87891 8.02483 7.46557 8.02483 11.8789V15.7322C8.02483 16.5456 7.67816 17.7856 7.26483 18.4789L5.7315 21.0256C4.78483 22.5989 5.43816 24.3456 7.1715 24.9322C12.9182 26.8522 19.1182 26.8522 24.8648 24.9322C26.4782 24.3989 27.1848 22.4922 26.3048 21.0256L24.7715 18.4789C24.3715 17.7856 24.0248 16.5456 24.0248 15.7322V11.8789C24.0248 7.47891 20.4248 3.87891 16.0248 3.87891Z" stroke="#FCFCFC" stroke-width="1.5" stroke-miterlimit="10" stroke-linecap="round"/>
<path d="M18.4919 4.26594C18.0786 4.14594 17.6519 4.0526 17.2119 3.99927C15.9319 3.83927 14.7053 3.9326 13.5586 4.26594C13.9453 3.27927 14.9053 2.58594 16.0253 2.58594C17.1453 2.58594 18.1053 3.27927 18.4919 4.26594Z" stroke="#FCFCFC" stroke-width="1.5" stroke-miterlimit="10" stroke-linecap="round" stroke-linejoin="round"/>
<path d="M20.0273 25.4141C20.0273 27.6141 18.2273 29.4141 16.0273 29.4141C14.934 29.4141 13.9207 28.9607 13.2007 28.2407C12.4807 27.5207 12.0273 26.5074 12.0273 25.4141" stroke="#FCFCFC" stroke-width="1.5" stroke-miterlimit="10"/>
</svg>
