<svg width="32" height="32" viewBox="0 0 32 32" fill="none" xmlns="http://www.w3.org/2000/svg">
<path d="M16.0268 3.88086C11.6135 3.88086 8.02678 7.46753 8.02678 11.8809V15.7342C8.02678 16.5475 7.68012 17.7875 7.26678 18.4809L5.73345 21.0275C4.78678 22.6009 5.44012 24.3475 7.17345 24.9342C12.9201 26.8542 19.1201 26.8542 24.8668 24.9342C26.4801 24.4009 27.1868 22.4942 26.3068 21.0275L24.7734 18.4809C24.3734 17.7875 24.0268 16.5475 24.0268 15.7342V11.8809C24.0268 7.48086 20.4268 3.88086 16.0268 3.88086Z" stroke="#6E44FF" stroke-width="1.5" stroke-miterlimit="10" stroke-linecap="round"/>
<path d="M18.4929 4.26594C18.0796 4.14594 17.6529 4.0526 17.2129 3.99927C15.9329 3.83927 14.7062 3.9326 13.5596 4.26594C13.9462 3.27927 14.9062 2.58594 16.0262 2.58594C17.1462 2.58594 18.1062 3.27927 18.4929 4.26594Z" stroke="#6E44FF" stroke-width="1.5" stroke-miterlimit="10" stroke-linecap="round" stroke-linejoin="round"/>
<path d="M20.0264 25.4141C20.0264 27.6141 18.2264 29.4141 16.0264 29.4141C14.933 29.4141 13.9197 28.9607 13.1997 28.2407C12.4797 27.5207 12.0264 26.5074 12.0264 25.4141" stroke="#6E44FF" stroke-width="1.5" stroke-miterlimit="10"/>
</svg>
