<svg width="16" height="16" viewBox="0 0 16 16" fill="none" xmlns="http://www.w3.org/2000/svg">
<path d="M10.7933 1.33301H5.20659C2.77992 1.33301 1.33325 2.77967 1.33325 5.20634V10.7863C1.33325 13.2197 2.77992 14.6663 5.20659 14.6663H10.7866C13.2133 14.6663 14.6599 13.2197 14.6599 10.793V5.20634C14.6666 2.77967 13.2199 1.33301 10.7933 1.33301ZM10.9133 9.75301L9.43325 11.233C9.07325 11.593 8.60659 11.7663 8.13992 11.7663C7.67325 11.7663 7.19992 11.5863 6.84659 11.233C6.13325 10.5197 6.13325 9.35301 6.84659 8.63967L7.78659 7.69967C7.97992 7.50634 8.29992 7.50634 8.49325 7.69967C8.68659 7.89301 8.68659 8.21301 8.49325 8.40634L7.55325 9.34634C7.22659 9.67301 7.22659 10.1997 7.55325 10.5263C7.87992 10.853 8.40659 10.853 8.73325 10.5263L10.2133 9.04634C10.6199 8.63967 10.8466 8.09301 10.8466 7.51301C10.8466 6.93301 10.6199 6.39301 10.2133 5.97967C9.39325 5.15967 7.96659 5.15967 7.14659 5.97967L5.52659 7.59967C4.83325 8.29301 4.83325 9.42634 5.52659 10.1263C5.71992 10.3197 5.71992 10.6397 5.52659 10.833C5.33325 11.0263 5.01325 11.0263 4.81992 10.833C3.73325 9.74634 3.73325 7.97967 4.81992 6.89301L6.43325 5.27967C7.03325 4.67967 7.82659 4.35301 8.67325 4.35301C9.51992 4.35301 10.3133 4.67967 10.9133 5.27967C11.5133 5.87967 11.8399 6.67301 11.8399 7.51967C11.8399 8.36634 11.5133 9.15967 10.9133 9.75301Z" fill="#5C5C5C"/>
</svg>
