<svg width="25" height="24" viewBox="0 0 25 24" fill="none" xmlns="http://www.w3.org/2000/svg">
<path d="M12.4697 2C6.94973 2 2.46973 6.48 2.46973 12C2.46973 17.52 6.94973 22 12.4697 22C17.9897 22 22.4697 17.52 22.4697 12C22.4697 6.48 17.9997 2 12.4697 2ZM11.2197 15.03C11.2197 15.51 11.0197 15.7 10.5097 15.7H9.20973C8.69973 15.7 8.49973 15.51 8.49973 15.03V8.97C8.49973 8.49 8.69973 8.3 9.20973 8.3H10.4997C11.0097 8.3 11.2097 8.49 11.2097 8.97V15.03H11.2197ZM16.4997 15.03C16.4997 15.51 16.2997 15.7 15.7897 15.7H14.4997C13.9897 15.7 13.7897 15.51 13.7897 15.03V8.97C13.7897 8.49 13.9897 8.3 14.4997 8.3H15.7897C16.2997 8.3 16.4997 8.49 16.4997 8.97V15.03Z" fill="#FCFCFC"/>
</svg>
