<svg width="32" height="32" viewBox="0 0 32 32" fill="none" xmlns="http://www.w3.org/2000/svg">
<path opacity="0.4" d="M21.5868 2.6665H10.4134C5.56008 2.6665 2.66675 5.55984 2.66675 10.4132V21.5732C2.66675 26.4398 5.56008 29.3332 10.4134 29.3332H21.5734C26.4268 29.3332 29.3201 26.4398 29.3201 21.5865V10.4132C29.3334 5.55984 26.4401 2.6665 21.5868 2.6665Z" fill="#FCFCFC" fill-opacity="0.5"/>
<path d="M14.3199 21.7069C14.0666 21.7069 13.8132 21.6135 13.6132 21.4135C13.2266 21.0269 13.2266 20.3869 13.6132 20.0002L17.6132 16.0002L13.6132 12.0002C13.2266 11.6135 13.2266 10.9735 13.6132 10.5869C13.9999 10.2002 14.6399 10.2002 15.0266 10.5869L19.7332 15.2935C20.1199 15.6802 20.1199 16.3202 19.7332 16.7069L15.0266 21.4135C14.8266 21.6135 14.5732 21.7069 14.3199 21.7069Z" fill="white"/>
</svg>
