<svg width="36" height="36" viewBox="0 0 36 36" fill="none" xmlns="http://www.w3.org/2000/svg">
<path d="M24.285 3H11.73C6.255 3 3 6.255 3 11.715V24.27C3 29.73 6.255 32.985 11.715 32.985H24.27C29.73 32.985 32.985 29.73 32.985 24.27V11.715C33 6.255 29.745 3 24.285 3Z" fill="#363636"/>
<path d="M13.3997 12.3202L21.8897 9.49015C25.6997 8.22015 27.7697 10.3002 26.5097 14.1102L23.6797 22.6002C21.7797 28.3102 18.6597 28.3102 16.7597 22.6002L15.9197 20.0802L13.3997 19.2402C7.68969 17.3402 7.68969 14.2302 13.3997 12.3202Z" stroke="#696969" stroke-width="1.5" stroke-linecap="round" stroke-linejoin="round"/>
<path d="M16.1094 19.6525L19.6894 16.0625" stroke="#696969" stroke-width="1.5" stroke-linecap="round" stroke-linejoin="round"/>
</svg>
