<svg width="36" height="36" viewBox="0 0 36 36" fill="none" xmlns="http://www.w3.org/2000/svg">
<circle cx="18" cy="18" r="18" fill="#191622" fill-opacity="0.5"/>
<path d="M21.5819 18.0019C21.5819 19.9819 19.9819 21.5819 18.0019 21.5819C16.0219 21.5819 14.4219 19.9819 14.4219 18.0019C14.4219 16.0219 16.0219 14.4219 18.0019 14.4219C19.9819 14.4219 21.5819 16.0219 21.5819 18.0019Z" stroke="#FCFCFC" stroke-linecap="round" stroke-linejoin="round"/>
<path d="M17.9998 26.2688C21.5298 26.2688 24.8198 24.1887 27.1098 20.5887C28.0098 19.1787 28.0098 16.8087 27.1098 15.3987C24.8198 11.7987 21.5298 9.71875 17.9998 9.71875C14.4698 9.71875 11.1798 11.7987 8.88984 15.3987C7.98984 16.8087 7.98984 19.1787 8.88984 20.5887C11.1798 24.1887 14.4698 26.2688 17.9998 26.2688Z" stroke="#FCFCFC" stroke-linecap="round" stroke-linejoin="round"/>
</svg>
