<svg width="36" height="36" viewBox="0 0 36 36" fill="none" xmlns="http://www.w3.org/2000/svg">
<circle cx="18" cy="18" r="18" fill="#191622" fill-opacity="0.5"/>
<path d="M10 20C8.89455 20 8 19.1055 8 18C8 16.8945 8.89455 16 10 16C11.1055 16 12 16.8945 12 18C12 19.1055 11.1055 20 10 20Z" fill="#FCFCFC"/>
<path d="M18 20C16.8945 20 16 19.1055 16 18C16 16.8945 16.8945 16 18 16C19.1055 16 20 16.8945 20 18C20 19.1055 19.1055 20 18 20Z" fill="#FCFCFC"/>
<path d="M26 20C24.8945 20 24 19.1055 24 18C24 16.8945 24.8945 16 26 16C27.1055 16 28 16.8945 28 18C28 19.1055 27.1055 20 26 20Z" fill="#FCFCFC"/>
</svg>
