<svg width="36" height="36" viewBox="0 0 36 36" fill="none" xmlns="http://www.w3.org/2000/svg">
<circle cx="18" cy="18" r="18" fill="#191622" fill-opacity="0.5"/>
<path d="M17.9688 8C12.4488 8 7.96875 12.48 7.96875 18C7.96875 23.52 12.4488 28 17.9688 28C23.4888 28 27.9688 23.52 27.9688 18C27.9688 12.48 23.4988 8 17.9688 8ZM16.7188 21.03C16.7188 21.51 16.5188 21.7 16.0087 21.7H14.7087C14.1987 21.7 13.9987 21.51 13.9987 21.03V14.97C13.9987 14.49 14.1987 14.3 14.7087 14.3H15.9987C16.5087 14.3 16.7087 14.49 16.7087 14.97V21.03H16.7188ZM21.9987 21.03C21.9987 21.51 21.7987 21.7 21.2887 21.7H19.9987C19.4887 21.7 19.2887 21.51 19.2887 21.03V14.97C19.2887 14.49 19.4887 14.3 19.9987 14.3H21.2887C21.7987 14.3 21.9987 14.49 21.9987 14.97V21.03Z" fill="#FCFCFC"/>
</svg>
