<svg width="36" height="36" viewBox="0 0 36 36" fill="none" xmlns="http://www.w3.org/2000/svg">
<circle cx="18" cy="18" r="18" fill="#191622" fill-opacity="0.5"/>
<path d="M17.9688 8C12.4488 8 7.96875 12.48 7.96875 18C7.96875 23.52 12.4488 28 17.9688 28C23.4888 28 27.9688 23.52 27.9688 18C27.9688 12.48 23.4988 8 17.9688 8ZM20.9688 20.23L18.0687 21.9C17.7087 22.11 17.3088 22.21 16.9187 22.21C16.5188 22.21 16.1287 22.11 15.7688 21.9C15.0487 21.48 14.6187 20.74 14.6187 19.9V16.55C14.6187 15.72 15.0487 14.97 15.7688 14.55C16.4888 14.13 17.3487 14.13 18.0787 14.55L20.9787 16.22C21.6987 16.64 22.1287 17.38 22.1287 18.22C22.1287 19.06 21.6987 19.81 20.9688 20.23Z" fill="#FCFCFC"/>
</svg>
