<svg width="16" height="16" viewBox="0 0 16 16" fill="none" xmlns="http://www.w3.org/2000/svg">
<path d="M8.00016 1.33398C4.32683 1.33398 1.3335 4.32732 1.3335 8.00065C1.3335 11.674 4.32683 14.6673 8.00016 14.6673C11.6735 14.6673 14.6668 11.674 14.6668 8.00065C14.6668 4.32732 11.6735 1.33398 8.00016 1.33398ZM11.1868 6.46732L7.40683 10.2473C7.3135 10.3407 7.18683 10.394 7.0535 10.394C6.92016 10.394 6.7935 10.3407 6.70016 10.2473L4.8135 8.36065C4.62016 8.16732 4.62016 7.84732 4.8135 7.65398C5.00683 7.46065 5.32683 7.46065 5.52016 7.65398L7.0535 9.18732L10.4802 5.76065C10.6735 5.56732 10.9935 5.56732 11.1868 5.76065C11.3802 5.95398 11.3802 6.26732 11.1868 6.46732Z" fill="#BEBEC0"/>
</svg>
