<svg width="36" height="36" viewBox="0 0 36 36" fill="none" xmlns="http://www.w3.org/2000/svg">
<path d="M24.285 3H11.73C6.255 3 3 6.255 3 11.715V24.27C3 29.73 6.255 32.985 11.715 32.985H24.27C29.73 32.985 32.985 29.73 32.985 24.27V11.715C33 6.255 29.745 3 24.285 3Z" fill="#6E44FF"/>
<path d="M13.4001 12.3202L21.8901 9.49015C25.7001 8.22015 27.7701 10.3002 26.5101 14.1102L23.6801 22.6002C21.7801 28.3102 18.6601 28.3102 16.7601 22.6002L15.9201 20.0802L13.4001 19.2402C7.69005 17.3402 7.69005 14.2302 13.4001 12.3202Z" stroke="#FCFCFC" stroke-width="1.5" stroke-linecap="round" stroke-linejoin="round"/>
<path d="M16.11 19.6486L19.69 16.0586" stroke="#FCFCFC" stroke-width="1.5" stroke-linecap="round" stroke-linejoin="round"/>
</svg>
