<svg width="46" height="47" viewBox="0 0 46 47" fill="none" xmlns="http://www.w3.org/2000/svg">
<g filter="url(#filter0_d_2963_189918)">
<path d="M21.2344 4.83928C22.1973 3.83619 23.8027 3.83619 24.7656 4.83928C25.3646 5.46328 26.249 5.72458 27.0909 5.52586C28.4373 5.20803 29.7834 6.0921 30.054 7.44882C30.2236 8.29919 30.8288 9.01074 31.6449 9.30392C32.9516 9.77338 33.609 11.2434 33.1084 12.5385C32.7948 13.3497 32.9244 14.2777 33.4528 14.9685C34.2999 16.0758 34.0756 17.6682 32.9508 18.492C32.25 19.0052 31.8689 19.86 31.9434 20.7254C32.0621 22.1048 31.0198 23.3336 29.6375 23.412C28.7732 23.461 27.9949 23.9683 27.5949 24.7361C26.9547 25.9651 25.4147 26.4276 24.2118 25.7396C23.461 25.3102 22.539 25.3102 21.7882 25.7396C20.5853 26.4276 19.0453 25.9651 18.4051 24.7361C18.0051 23.9683 17.2268 23.461 16.3625 23.412C14.9802 23.3336 13.9379 22.1048 14.0566 20.7254C14.1311 19.86 13.75 19.0052 13.0492 18.492C11.9244 17.6682 11.7001 16.0758 12.5472 14.9685C13.0756 14.2777 13.2052 13.3497 12.8916 12.5385C12.391 11.2434 13.0484 9.77339 14.3551 9.30392C15.1712 9.01074 15.7764 8.29919 15.946 7.44882C16.2166 6.0921 17.5627 5.20803 18.9091 5.52586C19.751 5.72458 20.6354 5.46328 21.2344 4.83928Z" fill="url(#paint0_linear_2963_189918)"/>
<path d="M14.8906 15.2106C14.8906 10.6156 18.6156 6.89062 23.2106 6.89062C27.8056 6.89062 31.5306 10.6156 31.5306 15.2106V15.3817C31.5306 19.9767 27.8056 23.7017 23.2106 23.7017C18.6156 23.7017 14.8906 19.9767 14.8906 15.3817V15.2106Z" fill="black" fill-opacity="0.04"/>
<path d="M16.2265 15.2106C16.2265 11.3534 19.3534 8.22653 23.2106 8.22653C27.0678 8.22653 30.1947 11.3534 30.1947 15.2106V15.3817C30.1947 19.2389 27.0678 22.3658 23.2106 22.3658C19.3534 22.3658 16.2265 19.2389 16.2265 15.3817V15.2106Z" stroke="white" stroke-opacity="0.3" stroke-width="2.67181"/>
<g filter="url(#filter1_d_2963_189918)">
<path d="M21.8149 16.8088L20.2174 15.1948C20.1314 15.1077 20.0146 15.0588 19.8928 15.0588C19.771 15.0588 19.6543 15.1077 19.5683 15.1948C19.3887 15.3762 19.3887 15.6692 19.5683 15.8506L21.4927 17.7948C21.6722 17.9762 21.9622 17.9762 22.1418 17.7948L27.0126 12.8739C27.1922 12.6925 27.1922 12.3995 27.0126 12.2181C26.9266 12.131 26.8098 12.082 26.6881 12.082C26.5663 12.082 26.4495 12.131 26.3635 12.2181L21.8149 16.8088Z" fill="white"/>
<path d="M21.8149 16.8088L20.2174 15.1948C20.1314 15.1077 20.0146 15.0588 19.8928 15.0588C19.771 15.0588 19.6543 15.1077 19.5683 15.1948C19.3887 15.3762 19.3887 15.6692 19.5683 15.8506L21.4927 17.7948C21.6722 17.9762 21.9622 17.9762 22.1418 17.7948L27.0126 12.8739C27.1922 12.6925 27.1922 12.3995 27.0126 12.2181C26.9266 12.131 26.8098 12.082 26.6881 12.082C26.5663 12.082 26.4495 12.131 26.3635 12.2181L21.8149 16.8088Z" stroke="#FDFDFD" stroke-width="0.534363"/>
</g>
<path d="M31.2628 15.2221C31.2628 19.8235 27.5977 23.5537 23.0767 23.5537C18.5557 23.5537 14.8906 19.8235 14.8906 15.2221C14.8906 10.6208 18.5557 6.89062 23.0767 6.89062C27.5977 6.89062 31.2628 10.6208 31.2628 15.2221ZM16.6165 15.2221C16.6165 18.8534 19.5088 21.7972 23.0767 21.7972C26.6446 21.7972 29.5369 18.8534 29.5369 15.2221C29.5369 11.5909 26.6446 8.64713 23.0767 8.64713C19.5088 8.64713 16.6165 11.5909 16.6165 15.2221Z" fill="white" fill-opacity="0.5"/>
</g>
<defs>
<filter id="filter0_d_2963_189918" x="-1" y="-1" width="48" height="48" filterUnits="userSpaceOnUse" color-interpolation-filters="sRGB">
<feFlood flood-opacity="0" result="BackgroundImageFix"/>
<feColorMatrix in="SourceAlpha" type="matrix" values="0 0 0 0 0 0 0 0 0 0 0 0 0 0 0 0 0 0 127 0" result="hardAlpha"/>
<feOffset dy="8"/>
<feGaussianBlur stdDeviation="6"/>
<feComposite in2="hardAlpha" operator="out"/>
<feColorMatrix type="matrix" values="0 0 0 0 0.647059 0 0 0 0 0.54902 0 0 0 0 0.498039 0 0 0 0.49 0"/>
<feBlend mode="normal" in2="BackgroundImageFix" result="effect1_dropShadow_2963_189918"/>
<feBlend mode="normal" in="SourceGraphic" in2="effect1_dropShadow_2963_189918" result="shape"/>
</filter>
<filter id="filter1_d_2963_189918" x="10.168" y="2.81641" width="26.2461" height="24.3828" filterUnits="userSpaceOnUse" color-interpolation-filters="sRGB">
<feFlood flood-opacity="0" result="BackgroundImageFix"/>
<feColorMatrix in="SourceAlpha" type="matrix" values="0 0 0 0 0 0 0 0 0 0 0 0 0 0 0 0 0 0 127 0" result="hardAlpha"/>
<feOffset/>
<feGaussianBlur stdDeviation="4.5"/>
<feComposite in2="hardAlpha" operator="out"/>
<feColorMatrix type="matrix" values="0 0 0 0 0.858824 0 0 0 0 0.992157 0 0 0 0 0.580392 0 0 0 0.25 0"/>
<feBlend mode="normal" in2="BackgroundImageFix" result="effect1_dropShadow_2963_189918"/>
<feBlend mode="normal" in="SourceGraphic" in2="effect1_dropShadow_2963_189918" result="shape"/>
</filter>
<linearGradient id="paint0_linear_2963_189918" x1="26.4532" y1="27" x2="18.8839" y2="5.65342" gradientUnits="userSpaceOnUse">
<stop offset="0.0625" stop-color="#87704F"/>
<stop offset="1" stop-color="#CBC6C5"/>
</linearGradient>
</defs>
</svg>
