<svg width="142" height="56" viewBox="0 0 142 56" fill="none" xmlns="http://www.w3.org/2000/svg">
<path d="M28.5763 26.68C31.3633 27.85 32.8895 30.19 32.8895 33.01C32.8895 37.51 28.9081 40 24.6613 40C24.6613 40 24.6613 40 24.6281 40V35.68C24.6613 35.68 24.6613 35.68 24.6613 35.68C26.4197 35.68 27.9791 34.6 27.9791 33.01C27.9791 31.24 26.1543 30.16 24.6613 30.1C24.429 30.1 22.6374 30.1 20.7131 29.29C17.9593 28.15 16.3999 26.02 16.3999 23.23C16.3999 18.73 20.4145 16 24.6613 16C29.2067 16 32.7236 18.76 32.7899 22.84C32.8231 22.93 32.6572 23.08 32.425 23.08H28.2777C28.0786 23.08 27.9127 22.93 27.9127 22.84C27.8464 21.13 26.3865 20.32 24.6613 20.32C22.8365 20.32 21.3434 21.31 21.3434 23.23C21.3434 24.97 22.9692 25.87 24.6613 25.87C24.8272 25.87 26.6851 25.87 28.5763 26.68Z" fill="#FCFCFC"/>
<path d="M47.669 28.06C47.669 29.29 46.5742 30.31 45.1807 30.31C43.7872 30.31 42.6923 29.29 42.6923 28.06C42.6923 26.8 43.7872 25.78 45.1807 25.78C46.5742 25.78 47.669 26.8 47.669 28.06ZM57.9543 27.97C57.9543 33.97 53.6743 40 45.2138 40C36.6207 40 32.4071 33.97 32.4071 27.97C32.4071 22 36.6207 16 45.2138 16C53.6743 16 57.9543 22 57.9543 27.97ZM52.9775 28.06C52.9775 24.13 50.3565 20.23 45.2138 20.23C40.0049 20.23 37.417 24.13 37.417 28.06C37.417 31.93 40.0049 35.8 45.2138 35.8C50.3565 35.8 52.9775 31.93 52.9775 28.06Z" fill="#FCFCFC"/>
<path d="M73.0376 35.59H78.1139V39.73C78.1139 39.85 77.9812 40 77.7489 40H73.4358C66.8333 40 57.8752 38.26 57.8752 28C57.8752 17.35 66.9329 16 73.4358 16H77.7489C77.9812 16 78.1139 16.15 78.1139 16.27V25.69H73.0376V20.38C67.2646 20.11 62.9847 22.3 62.9847 28C62.9847 35.41 69.8194 35.71 73.0376 35.59Z" fill="#FCFCFC"/>
<path d="M93.0648 28.06C93.0648 29.29 91.9699 30.31 90.5765 30.31C89.183 30.31 88.0881 29.29 88.0881 28.06C88.0881 26.8 89.183 25.78 90.5765 25.78C91.9699 25.78 93.0648 26.8 93.0648 28.06ZM103.35 27.97C103.35 33.97 99.0701 40 90.6096 40C82.0165 40 77.8029 33.97 77.8029 27.97C77.8029 22 82.0165 16 90.6096 16C99.0701 16 103.35 22 103.35 27.97ZM98.3733 28.06C98.3733 24.13 95.7523 20.23 90.6096 20.23C85.4007 20.23 82.8128 24.13 82.8128 28.06C82.8128 31.93 85.4007 35.8 90.6096 35.8C95.7523 35.8 98.3733 31.93 98.3733 28.06Z" fill="#FCFCFC"/>
<path d="M125.235 16C125.467 16 125.6 16.15 125.6 16.27V39.73C125.6 39.85 125.467 40 125.235 40H120.855C120.789 40 120.59 39.97 120.557 39.91L108.347 24.1V34.24H103.271V16.27C103.271 16.15 103.437 16 103.603 16H108.015C108.082 16 108.281 16.03 108.314 16.09L120.557 31.9V16.27C120.557 16.15 120.723 16 120.955 16H125.235Z" fill="#FCFCFC"/>
</svg>
