<svg width="110" height="24" viewBox="0 0 110 24" fill="none" xmlns="http://www.w3.org/2000/svg">
<path d="M12.5763 10.68C15.3633 11.85 16.8895 14.19 16.8895 17.01C16.8895 21.51 12.9081 24 8.66127 24C8.66127 24 8.66127 24 8.62809 24V19.68C8.66127 19.68 8.66127 19.68 8.66127 19.68C10.4197 19.68 11.9791 18.6 11.9791 17.01C11.9791 15.24 10.1543 14.16 8.66127 14.1C8.42902 14.1 6.6374 14.1 4.71306 13.29C1.95928 12.15 0.399902 10.02 0.399902 7.23C0.399902 2.73 4.41446 0 8.66127 0C13.2067 0 16.7236 2.76 16.7899 6.84C16.8231 6.93 16.6572 7.08 16.425 7.08H12.2777C12.0786 7.08 11.9127 6.93 11.9127 6.84C11.8464 5.13 10.3865 4.32 8.66127 4.32C6.83647 4.32 5.34345 5.31 5.34345 7.23C5.34345 8.97 6.96918 9.87 8.66127 9.87C8.82716 9.87 10.6851 9.87 12.5763 10.68Z" fill="#FCFCFC"/>
<path d="M31.669 12.06C31.669 13.29 30.5742 14.31 29.1807 14.31C27.7872 14.31 26.6923 13.29 26.6923 12.06C26.6923 10.8 27.7872 9.78 29.1807 9.78C30.5742 9.78 31.669 10.8 31.669 12.06ZM41.9543 11.97C41.9543 17.97 37.6743 24 29.2138 24C20.6207 24 16.4071 17.97 16.4071 11.97C16.4071 6 20.6207 0 29.2138 0C37.6743 0 41.9543 6 41.9543 11.97ZM36.9775 12.06C36.9775 8.13 34.3565 4.23 29.2138 4.23C24.0049 4.23 21.417 8.13 21.417 12.06C21.417 15.93 24.0049 19.8 29.2138 19.8C34.3565 19.8 36.9775 15.93 36.9775 12.06Z" fill="#FCFCFC"/>
<path d="M57.0376 19.59H62.1139V23.73C62.1139 23.85 61.9812 24 61.7489 24H57.4358C50.8333 24 41.8752 22.26 41.8752 12C41.8752 1.35 50.9329 0 57.4358 0H61.7489C61.9812 0 62.1139 0.15 62.1139 0.27V9.69H57.0376V4.38C51.2646 4.11 46.9847 6.3 46.9847 12C46.9847 19.41 53.8194 19.71 57.0376 19.59Z" fill="#FCFCFC"/>
<path d="M77.0648 12.06C77.0648 13.29 75.9699 14.31 74.5765 14.31C73.183 14.31 72.0881 13.29 72.0881 12.06C72.0881 10.8 73.183 9.78 74.5765 9.78C75.9699 9.78 77.0648 10.8 77.0648 12.06ZM87.3501 11.97C87.3501 17.97 83.0701 24 74.6096 24C66.0165 24 61.8029 17.97 61.8029 11.97C61.8029 6 66.0165 0 74.6096 0C83.0701 0 87.3501 6 87.3501 11.97ZM82.3733 12.06C82.3733 8.13 79.7523 4.23 74.6096 4.23C69.4007 4.23 66.8128 8.13 66.8128 12.06C66.8128 15.93 69.4007 19.8 74.6096 19.8C79.7523 19.8 82.3733 15.93 82.3733 12.06Z" fill="#FCFCFC"/>
<path d="M109.235 0C109.467 0 109.6 0.15 109.6 0.27V23.73C109.6 23.85 109.467 24 109.235 24H104.855C104.789 24 104.59 23.97 104.557 23.91L92.3472 8.1V18.24H87.271V0.27C87.271 0.15 87.4369 0 87.6028 0H92.0155C92.0818 0 92.2809 0.0299999 92.3141 0.0899991L104.557 15.9V0.27C104.557 0.15 104.723 0 104.955 0H109.235Z" fill="#FCFCFC"/>
</svg>
