<svg width="192" height="42" viewBox="0 0 192 42" fill="none" xmlns="http://www.w3.org/2000/svg">
<path d="M21.7975 18.69C26.6722 20.7375 29.3416 24.8325 29.3416 29.7675C29.3416 37.6425 22.3778 42 14.9498 42C14.9498 42 14.9498 42 14.8918 42V34.44C14.9498 34.44 14.9498 34.44 14.9498 34.44C18.0255 34.44 20.753 32.55 20.753 29.7675C20.753 26.67 17.5612 24.78 14.9498 24.675C14.5436 24.675 11.4099 24.675 8.04408 23.2575C3.22748 21.2625 0.5 17.535 0.5 12.6525C0.5 4.7775 7.5218 0 14.9498 0C22.9001 0 29.0515 4.83 29.1675 11.97C29.2256 12.1275 28.9354 12.39 28.5292 12.39H21.2753C20.9271 12.39 20.6369 12.1275 20.6369 11.97C20.5209 8.9775 17.9675 7.56 14.9498 7.56C11.7581 7.56 9.14668 9.2925 9.14668 12.6525C9.14668 15.6975 11.9902 17.2725 14.9498 17.2725C15.24 17.2725 18.4897 17.2725 21.7975 18.69Z" fill="#6E44FF"/>
<path d="M55.1923 21.105C55.1923 23.2575 53.2773 25.0425 50.84 25.0425C48.4027 25.0425 46.4876 23.2575 46.4876 21.105C46.4876 18.9 48.4027 17.115 50.84 17.115C53.2773 17.115 55.1923 18.9 55.1923 21.105ZM73.1821 20.9475C73.1821 31.4475 65.696 42 50.898 42C35.8679 42 28.4979 31.4475 28.4979 20.9475C28.4979 10.5 35.8679 0 50.898 0C65.696 0 73.1821 10.5 73.1821 20.9475ZM64.4774 21.105C64.4774 14.2275 59.8929 7.4025 50.898 7.4025C41.7871 7.4025 37.2606 14.2275 37.2606 21.105C37.2606 27.8775 41.7871 34.65 50.898 34.65C59.8929 34.65 64.4774 27.8775 64.4774 21.105Z" fill="#6E44FF"/>
<path d="M99.5642 34.2825H108.443V41.5275C108.443 41.7375 108.211 42 107.805 42H100.261C88.7123 42 73.0438 38.955 73.0438 21C73.0438 2.3625 88.8864 0 100.261 0H107.805C108.211 0 108.443 0.2625 108.443 0.472501V16.9575H99.5642V7.665C89.4667 7.1925 81.9807 11.025 81.9807 21C81.9807 33.9675 93.9351 34.4925 99.5642 34.2825Z" fill="#6E44FF"/>
<path d="M134.593 21.105C134.593 23.2575 132.678 25.0425 130.241 25.0425C127.804 25.0425 125.889 23.2575 125.889 21.105C125.889 18.9 127.804 17.115 130.241 17.115C132.678 17.115 134.593 18.9 134.593 21.105ZM152.583 20.9475C152.583 31.4475 145.097 42 130.299 42C115.269 42 107.899 31.4475 107.899 20.9475C107.899 10.5 115.269 0 130.299 0C145.097 0 152.583 10.5 152.583 20.9475ZM143.878 21.105C143.878 14.2275 139.294 7.4025 130.299 7.4025C121.188 7.4025 116.662 14.2275 116.662 21.105C116.662 27.8775 121.188 34.65 130.299 34.65C139.294 34.65 143.878 27.8775 143.878 21.105Z" fill="#6E44FF"/>
<path d="M190.862 0C191.268 0 191.5 0.2625 191.5 0.472501V41.5275C191.5 41.7375 191.268 42 190.862 42H183.202C183.085 42 182.737 41.9475 182.679 41.8425L161.324 14.175V31.92H152.445V0.472501C152.445 0.2625 152.735 0 153.025 0H160.743C160.859 0 161.208 0.0524998 161.266 0.157498L182.679 27.825V0.472501C182.679 0.2625 182.969 0 183.376 0H190.862Z" fill="#6E44FF"/>
</svg>
