<svg width="32" height="32" viewBox="0 0 32 32" fill="none" xmlns="http://www.w3.org/2000/svg">
<rect width="32" height="32" rx="8" fill="#222222" fill-opacity="0.5"/>
<rect x="10" y="8" width="12" height="12" fill="#363636"/>
<path d="M22 6H10C8.34 6 7 7.33 7 8.97V19.88C7 21.52 8.34 22.86 10 22.86H10.76C11.55 22.86 12.32 23.17 12.88 23.73L14.59 25.42C15.37 26.19 16.63 26.19 17.41 25.42L19.12 23.73C19.68 23.17 20.45 22.86 21.24 22.86H22C23.66 22.86 25 21.52 25 19.88V8.97C25 7.33 23.66 6 22 6ZM16 9.55C17.08 9.55 17.95 10.43 17.95 11.5C17.95 12.56 17.11 13.41 16.07 13.45C16.03 13.45 15.97 13.45 15.92 13.45C14.87 13.41 14.04 12.56 14.04 11.5C14.05 10.43 14.92 9.55 16 9.55ZM18.75 18.69C17.24 19.7 14.76 19.7 13.25 18.69C11.92 17.81 11.92 16.35 13.25 15.46C14.77 14.45 17.25 14.45 18.75 15.46C20.08 16.35 20.08 17.8 18.75 18.69Z" fill="#FCFCFC"/>
</svg>
