<svg width="22" height="22" viewBox="0 0 22 22" fill="none" xmlns="http://www.w3.org/2000/svg">
<g id="tick-square" clip-path="url(#clip0_8865_144399)">
<rect id="Rectangle 314" width="22" height="22" rx="6" fill="#FCFCFC"/>
<path id="Vector" d="M15.1971 1H6.8129C3.17108 1 1 3.17 1 6.81V15.18C1 18.83 3.17108 21 6.8129 21H15.1871C18.8289 21 21 18.83 21 15.19V6.81C21.01 3.17 18.8389 1 15.1971 1ZM15.7874 8.7L10.1145 14.37C9.97447 14.51 9.78438 14.59 9.58428 14.59C9.38418 14.59 9.19408 14.51 9.05401 14.37L6.2226 11.54C5.93246 11.25 5.93246 10.77 6.2226 10.48C6.51275 10.19 6.99299 10.19 7.28313 10.48L9.58428 12.78L14.7268 7.64C15.017 7.35 15.4972 7.35 15.7874 7.64C16.0775 7.93 16.0775 8.4 15.7874 8.7Z" fill="#6E44FF"/>
</g>
<defs>
<clipPath id="clip0_8865_144399">
<rect width="22" height="22" fill="white"/>
</clipPath>
</defs>
</svg>
