<svg width="22" height="18" viewBox="0 0 22 18" fill="none" xmlns="http://www.w3.org/2000/svg">
<path d="M4.58333 6.00003L5.5 0H16.5L17.4167 6.00003L22 8.14289C19.25 9.85719 2.75 9.85719 0 8.14289L4.58333 6.00003Z" fill="#FCFCFC"/>
<path fill-rule="evenodd" clip-rule="evenodd" d="M9.56824 15.4304C9.17745 16.9091 7.7993 18.0017 6.15916 18.0017C4.21512 18.0017 2.63916 16.4667 2.63916 14.5731C2.63916 12.6796 4.21512 11.1445 6.15916 11.1445C7.79937 11.1445 9.17756 12.2372 9.56829 13.7161H12.4305C12.8213 12.2372 14.1994 11.1445 15.8397 11.1445C17.7837 11.1445 19.3597 12.6796 19.3597 14.5731C19.3597 16.4667 17.7837 18.0017 15.8397 18.0017C14.1995 18.0017 12.8214 16.9091 12.4306 15.4304H9.56824Z" fill="#FCFCFC"/>
</svg>
