<svg width="20" height="20" viewBox="0 0 20 20" fill="none" xmlns="http://www.w3.org/2000/svg">
<path d="M17.5 4.98698C14.725 4.71198 11.9333 4.57031 9.15 4.57031C7.5 4.57031 5.85 4.65365 4.2 4.82031L2.5 4.98698" stroke="#F4323E" stroke-linecap="round" stroke-linejoin="round"/>
<path d="M7.0835 4.13906L7.26683 3.0474C7.40016 2.25573 7.50016 1.66406 8.9085 1.66406H11.0918C12.5002 1.66406 12.6085 2.28906 12.7335 3.05573L12.9168 4.13906" stroke="#F4323E" stroke-linecap="round" stroke-linejoin="round"/>
<path d="M15.7082 7.61719L15.1665 16.0089C15.0748 17.3172 14.9998 18.3339 12.6748 18.3339H7.32484C4.99984 18.3339 4.92484 17.3172 4.83317 16.0089L4.2915 7.61719" stroke="#F4323E" stroke-linecap="round" stroke-linejoin="round"/>
<path d="M8.6084 13.75H11.3834" stroke="#F4323E" stroke-linecap="round" stroke-linejoin="round"/>
<path d="M7.9165 10.4141H12.0832" stroke="#F4323E" stroke-linecap="round" stroke-linejoin="round"/>
</svg>
