<svg width="32" height="32" viewBox="0 0 32 32" fill="none" xmlns="http://www.w3.org/2000/svg">
<path d="M16.0016 20.4016C13.575 20.4016 11.6016 18.4282 11.6016 16.0016C11.6016 13.575 13.575 11.6016 16.0016 11.6016C16.1961 11.6016 16.3826 11.6788 16.5201 11.8164C16.6576 11.9539 16.7349 12.1404 16.7349 12.3349C16.7349 12.5294 16.6576 12.7159 16.5201 12.8534C16.3826 12.991 16.1961 13.0682 16.0016 13.0682C14.3838 13.0682 13.0682 14.3838 13.0682 16.0016C13.0682 17.6193 14.3838 18.9349 16.0016 18.9349C17.6193 18.9349 18.9349 17.6193 18.9349 16.0016C18.9349 15.8071 19.0122 15.6205 19.1497 15.483C19.2872 15.3455 19.4737 15.2682 19.6682 15.2682C19.8627 15.2682 20.0492 15.3455 20.1868 15.483C20.3243 15.6205 20.4016 15.8071 20.4016 16.0016C20.4016 18.4282 18.4282 20.4016 16.0016 20.4016Z" fill="#6E44FF"/>
<path d="M16 27C9.9346 27 5 22.0654 5 16C5 9.9346 9.9346 5 16 5C17.064 4.99969 18.1224 5.15333 19.1423 5.45613C19.2346 5.48358 19.3205 5.52893 19.3953 5.58959C19.47 5.65025 19.5321 5.72504 19.5779 5.80969C19.6237 5.89433 19.6524 5.98717 19.6624 6.08291C19.6723 6.17865 19.6633 6.27541 19.6359 6.36767C19.6084 6.45993 19.5631 6.54587 19.5024 6.62061C19.4417 6.69534 19.367 6.75739 19.2823 6.80322C19.1977 6.84905 19.1048 6.87776 19.0091 6.8877C18.9134 6.89765 18.8166 6.88865 18.7243 6.8612C17.8399 6.59946 16.9224 6.46658 16 6.46667C10.7435 6.46667 6.46667 10.7435 6.46667 16C6.46667 21.2565 10.7435 25.5333 16 25.5333C21.2565 25.5333 25.5333 21.2565 25.5333 16C25.5329 15.0777 25.4001 14.1602 25.1388 13.2757C25.1114 13.1834 25.1023 13.0866 25.1123 12.9909C25.1222 12.8952 25.151 12.8023 25.1968 12.7177C25.2426 12.633 25.3047 12.5583 25.3794 12.4976C25.4541 12.4369 25.5401 12.3916 25.6323 12.3641C25.7246 12.3367 25.8214 12.3277 25.9171 12.3376C26.0128 12.3476 26.1057 12.3763 26.1903 12.4221C26.275 12.4679 26.3497 12.53 26.4104 12.6047C26.4711 12.6795 26.5164 12.7654 26.5439 12.8577C26.8463 13.8777 27 14.9361 27 16C27 22.0654 22.0654 27 16 27Z" fill="#6E44FF"/>
<path d="M24 6C25.3807 6 26.5 4.88071 26.5 3.5C26.5 2.11929 25.3807 1 24 1C22.6193 1 21.5 2.11929 21.5 3.5C21.5 4.88071 22.6193 6 24 6Z" fill="#6E44FF"/>
<path d="M23.9981 7.25C21.4931 7.25 19.4531 8.93 19.4531 11C19.4531 11.14 19.5631 11.25 19.7031 11.25H28.2931C28.4331 11.25 28.5431 11.14 28.5431 11C28.5431 8.93 26.5031 7.25 23.9981 7.25Z" fill="#6E44FF"/>
</svg>
