<svg width="48" height="32" viewBox="0 0 48 32" fill="none" xmlns="http://www.w3.org/2000/svg">
<rect width="48" height="32" rx="12" fill="#191622"/>
<path d="M34 10.25V15.35C34 16.62 33.58 17.69 32.83 18.43C32.09 19.18 31.02 19.6 29.75 19.6V21.41C29.75 22.09 28.99 22.5 28.43 22.12L27.46 21.48C27.55 21.17 27.59 20.83 27.59 20.47V16.4C27.59 14.36 26.23 13 24.19 13H17.4C17.26 13 17.13 13.01 17 13.02V10.25C17 7.7 18.7 6 21.25 6H29.75C32.3 6 34 7.7 34 10.25Z" stroke="#FCFCFC" stroke-miterlimit="10" stroke-linecap="round" stroke-linejoin="round"/>
<path d="M27.59 16.4V20.47C27.59 20.83 27.55 21.17 27.46 21.48C27.09 22.95 25.87 23.87 24.19 23.87H21.47L18.45 25.88C18 26.19 17.4 25.86 17.4 25.32V23.87C16.38 23.87 15.53 23.53 14.94 22.94C14.34 22.34 14 21.49 14 20.47V16.4C14 14.5 15.18 13.19 17 13.02C17.13 13.01 17.26 13 17.4 13H24.19C26.23 13 27.59 14.36 27.59 16.4Z" stroke="#FCFCFC" stroke-miterlimit="10" stroke-linecap="round" stroke-linejoin="round"/>
</svg>
