<svg width="28" height="28" viewBox="0 0 28 28" fill="none" xmlns="http://www.w3.org/2000/svg">
<path d="M3.5 25.668H24.5" stroke="#BEBEC0" stroke-width="1.5" stroke-linecap="round" stroke-linejoin="round"/>
<path d="M6.53331 9.77344H4.66667C4.025 9.77344 3.5 10.2984 3.5 10.9401V20.9968C3.5 21.6384 4.025 22.1634 4.66667 22.1634H6.53331C7.17497 22.1634 7.69997 21.6384 7.69997 20.9968V10.9401C7.69997 10.2984 7.17497 9.77344 6.53331 9.77344Z" stroke="#BEBEC0" stroke-width="1.5" stroke-linecap="round" stroke-linejoin="round"/>
<path d="M14.9332 6.05469H13.0666C12.4249 6.05469 11.8999 6.57969 11.8999 7.22135V20.9997C11.8999 21.6414 12.4249 22.1664 13.0666 22.1664H14.9332C15.5749 22.1664 16.0999 21.6414 16.0999 20.9997V7.22135C16.0999 6.57969 15.5749 6.05469 14.9332 6.05469Z" stroke="#BEBEC0" stroke-width="1.5" stroke-linecap="round" stroke-linejoin="round"/>
<path d="M23.3334 2.33203H21.4667C20.825 2.33203 20.3 2.85703 20.3 3.4987V20.9987C20.3 21.6404 20.825 22.1654 21.4667 22.1654H23.3334C23.975 22.1654 24.5 21.6404 24.5 20.9987V3.4987C24.5 2.85703 23.975 2.33203 23.3334 2.33203Z" stroke="#BEBEC0" stroke-width="1.5" stroke-linecap="round" stroke-linejoin="round"/>
</svg>
