<svg width="20" height="20" viewBox="0 0 20 20" fill="none" xmlns="http://www.w3.org/2000/svg">
<path d="M14 2.75833L14 17.2417C14 18.6167 14.3765 19.1667 15.3118 19.1667L17.6882 19.1667C18.6235 19.1667 19 18.6167 19 17.2417L19 2.75833C19 1.38333 18.6235 0.833332 17.6882 0.833332L15.3118 0.833332C14.3765 0.833332 14 1.38333 14 2.75833Z" fill="#999999"/>
<path d="M1.66797 12.1795L1.66797 17.8205C1.66797 18.7821 2.01307 19.1667 2.87042 19.1667L5.04885 19.1667C5.9062 19.1667 6.2513 18.7821 6.2513 17.8205L6.2513 12.1795C6.2513 11.2179 5.9062 10.8333 5.04885 10.8333L2.87042 10.8333C2.01307 10.8333 1.66797 11.2179 1.66797 12.1795Z" fill="#999999"/>
<path d="M8.33203 8.6859L8.33203 17.1474C8.33203 18.5897 8.67713 19.1667 9.53448 19.1667L11.7129 19.1667C12.5703 19.1667 12.9154 18.5897 12.9154 17.1474L12.9154 8.6859C12.9154 7.24359 12.5703 6.66667 11.7129 6.66667L9.53448 6.66667C8.67713 6.66667 8.33203 7.24359 8.33203 8.6859Z" fill="#999999"/>
</svg>
