<svg width="14" height="14" viewBox="0 0 14 14" fill="none" xmlns="http://www.w3.org/2000/svg">
<path d="M12.5765 6.26391L11.789 5.34224C11.6432 5.16724 11.5207 4.84057 11.5207 4.60724V3.61557C11.5207 2.99724 11.0132 2.48974 10.3949 2.48974H9.40318C9.16985 2.48974 8.83735 2.36724 8.66235 2.22141L7.74068 1.43391C7.33818 1.08974 6.67902 1.08974 6.27652 1.43391L5.34318 2.22141C5.16818 2.36724 4.84152 2.48974 4.60818 2.48974H3.59902C2.98068 2.48974 2.47318 2.99724 2.47318 3.61557V4.60724C2.47318 4.83474 2.35652 5.16141 2.21068 5.33641L1.42318 6.26391C1.08485 6.67224 1.08485 7.32557 1.42318 7.72224L2.21068 8.64974C2.35652 8.81891 2.47318 9.15141 2.47318 9.37891V10.3764C2.47318 10.9947 2.98068 11.5022 3.59902 11.5022H4.61402C4.84152 11.5022 5.17402 11.6247 5.34902 11.7706L6.27068 12.5581C6.67318 12.9022 7.33235 12.9022 7.73485 12.5581L8.65652 11.7706C8.83152 11.6247 9.15818 11.5022 9.39152 11.5022H10.3832C11.0015 11.5022 11.509 10.9947 11.509 10.3764V9.38474C11.509 9.15141 11.6315 8.82474 11.7774 8.64974L12.5649 7.72807C12.9207 7.33141 12.9207 6.67224 12.5765 6.26391ZM6.56235 4.74141C6.56235 4.50224 6.76068 4.30391 6.99985 4.30391C7.23902 4.30391 7.43735 4.50224 7.43735 4.74141V7.55891C7.43735 7.79807 7.23902 7.99641 6.99985 7.99641C6.76068 7.99641 6.56235 7.79807 6.56235 7.55891V4.74141ZM6.99985 9.83974C6.67902 9.83974 6.41652 9.57724 6.41652 9.25641C6.41652 8.93557 6.67318 8.67307 6.99985 8.67307C7.32068 8.67307 7.58318 8.93557 7.58318 9.25641C7.58318 9.57724 7.32652 9.83974 6.99985 9.83974Z" fill="#F4323E"/>
</svg>
