<svg width="16" height="16" viewBox="0 0 16 16" fill="none" xmlns="http://www.w3.org/2000/svg">
<path d="M10.7935 1.33203H5.20683C2.78016 1.33203 1.3335 2.7787 1.3335 5.20536V10.7854C1.3335 13.2187 2.78016 14.6654 5.20683 14.6654H10.7868C13.2135 14.6654 14.6602 13.2187 14.6602 10.792V5.20536C14.6668 2.7787 13.2202 1.33203 10.7935 1.33203ZM10.9135 9.75203L9.4335 11.232C9.0735 11.592 8.60683 11.7654 8.14016 11.7654C7.6735 11.7654 7.20016 11.5854 6.84683 11.232C6.1335 10.5187 6.1335 9.35203 6.84683 8.6387L7.78683 7.6987C7.98016 7.50536 8.30016 7.50536 8.4935 7.6987C8.68683 7.89203 8.68683 8.21203 8.4935 8.40536L7.5535 9.34537C7.22683 9.67203 7.22683 10.1987 7.5535 10.5254C7.88016 10.852 8.40683 10.852 8.7335 10.5254L10.2135 9.04536C10.6202 8.6387 10.8468 8.09203 10.8468 7.51203C10.8468 6.93203 10.6202 6.39203 10.2135 5.9787C9.3935 5.1587 7.96683 5.1587 7.14683 5.9787L5.52683 7.5987C4.8335 8.29203 4.8335 9.42536 5.52683 10.1254C5.72016 10.3187 5.72016 10.6387 5.52683 10.832C5.3335 11.0254 5.0135 11.0254 4.82016 10.832C3.7335 9.74537 3.7335 7.9787 4.82016 6.89203L6.4335 5.2787C7.0335 4.6787 7.82683 4.35203 8.6735 4.35203C9.52016 4.35203 10.3135 4.6787 10.9135 5.2787C11.5135 5.8787 11.8402 6.67203 11.8402 7.5187C11.8402 8.36536 11.5135 9.1587 10.9135 9.75203Z" fill="#5C5C5C"/>
</svg>
