<svg width="24" height="24" viewBox="0 0 24 24" fill="none" xmlns="http://www.w3.org/2000/svg">
<path d="M18 3.31L18 20.69C18 22.34 18.3765 23 19.3118 23L21.6882 23C22.6235 23 23 22.34 23 20.69L23 3.31C23 1.66 22.6235 0.999999 21.6882 0.999999L19.3118 0.999999C18.3765 1 18 1.66 18 3.31Z" stroke="#BEBEC0" stroke-width="1.2" stroke-linecap="round" stroke-linejoin="round"/>
<path d="M2 14.6154L2 21.3846C2 22.5385 2.41412 23 3.44294 23L6.05706 23C7.08588 23 7.5 22.5385 7.5 21.3846L7.5 14.6154C7.5 13.4615 7.08588 13 6.05706 13L3.44294 13C2.41412 13 2 13.4615 2 14.6154Z" stroke="#BEBEC0" stroke-width="1.2" stroke-linecap="round" stroke-linejoin="round"/>
<path d="M10 10.4231L10 20.5769C10 22.3077 10.4141 23 11.4429 23L14.0571 23C15.0859 23 15.5 22.3077 15.5 20.5769L15.5 10.4231C15.5 8.69231 15.0859 8 14.0571 8L11.4429 8C10.4141 8 10 8.69231 10 10.4231Z" stroke="#BEBEC0" stroke-width="1.2" stroke-linecap="round" stroke-linejoin="round"/>
</svg>
