<svg width="20" height="20" viewBox="0 0 20 20" fill="none" xmlns="http://www.w3.org/2000/svg">
<path d="M14 2.75964L14 17.243C14 18.618 14.3765 19.168 15.3118 19.168L17.6882 19.168C18.6235 19.168 19 18.618 19 17.243L19 2.75964C19 1.38464 18.6235 0.834635 17.6882 0.834635L15.3118 0.834635C14.3765 0.834635 14 1.38464 14 2.75964Z" fill="#6E44FF"/>
<path d="M1.6665 12.1808L1.6665 17.8218C1.6665 18.7834 2.0116 19.168 2.86895 19.168L5.04739 19.168C5.90474 19.168 6.24984 18.7834 6.24984 17.8218L6.24984 12.1808C6.24984 11.2193 5.90474 10.8346 5.04739 10.8346L2.86895 10.8346C2.0116 10.8346 1.6665 11.2193 1.6665 12.1808Z" fill="#6E44FF"/>
<path d="M8.3335 8.6872L8.3335 17.1487C8.3335 18.591 8.67859 19.168 9.53595 19.168L11.7144 19.168C12.5717 19.168 12.9168 18.591 12.9168 17.1487L12.9168 8.6872C12.9168 7.24489 12.5717 6.66797 11.7144 6.66797L9.53595 6.66797C8.67859 6.66797 8.3335 7.24489 8.3335 8.6872Z" fill="#6E44FF"/>
</svg>
