<svg width="16" height="16" viewBox="0 0 16 16" fill="none" xmlns="http://www.w3.org/2000/svg">
<path d="M6.10573 7.24536C6.03906 7.2387 5.95906 7.2387 5.88573 7.24536C4.29906 7.19203 3.03906 5.89203 3.03906 4.29203C3.03906 2.6587 4.35906 1.33203 5.99906 1.33203C7.6324 1.33203 8.95906 2.6587 8.95906 4.29203C8.95239 5.89203 7.6924 7.19203 6.10573 7.24536Z" stroke="#D9D9D9" stroke-linecap="round" stroke-linejoin="round"/>
<path d="M10.9382 2.66797C12.2316 2.66797 13.2716 3.71464 13.2716 5.0013C13.2716 6.2613 12.2716 7.28797 11.0249 7.33464C10.9716 7.32797 10.9116 7.32797 10.8516 7.33464" stroke="#D9D9D9" stroke-linecap="round" stroke-linejoin="round"/>
<path d="M2.7725 9.70797C1.15917 10.788 1.15917 12.548 2.7725 13.6213C4.60583 14.848 7.6125 14.848 9.44583 13.6213C11.0592 12.5413 11.0592 10.7813 9.44583 9.70797C7.61917 8.48797 4.6125 8.48797 2.7725 9.70797Z" stroke="#D9D9D9" stroke-linecap="round" stroke-linejoin="round"/>
<path d="M12.2266 13.332C12.7066 13.232 13.1599 13.0387 13.5332 12.752C14.5732 11.972 14.5732 10.6854 13.5332 9.90536C13.1666 9.62536 12.7199 9.4387 12.2466 9.33203" stroke="#D9D9D9" stroke-linecap="round" stroke-linejoin="round"/>
</svg>
