<svg width="28" height="28" viewBox="0 0 28 28" fill="none" xmlns="http://www.w3.org/2000/svg">
<path d="M7.88816 25.6681H20.418C23.638 25.6681 25.2248 23.6964 25.3765 21.2931V11.6564C25.5398 9.13641 23.5332 7.00141 21.0015 7.00141C20.2898 7.00141 19.6365 6.59307 19.3098 5.96307L18.4698 4.27141C17.9332 3.20974 16.6963 2.91797 15.5063 2.91797H12.8346C11.633 2.91797 10.0698 3.20974 9.53316 4.27141L8.69316 5.96307C8.3665 6.59307 7.71316 7.00141 7.0015 7.00141C4.46983 7.00141 2.46316 9.13641 2.6265 11.6564L2.6265 21.2931C2.7665 23.6964 4.66816 25.6681 7.88816 25.6681Z" stroke="#BEBEC0" stroke-width="1.5" stroke-linecap="round" stroke-linejoin="round"/>
<path d="M13.9987 21.0013C16.087 21.0013 17.7904 19.298 17.7904 17.2096C17.7904 15.1213 16.087 13.418 13.9987 13.418C11.9104 13.418 10.207 15.1213 10.207 17.2096C10.207 19.298 11.9104 21.0013 13.9987 21.0013Z" stroke="#BEBEC0" stroke-width="1.5" stroke-linecap="round" stroke-linejoin="round"/>
</svg>
