<svg width="26" height="25" viewBox="0 0 26 25" fill="none" xmlns="http://www.w3.org/2000/svg">
<path d="M6.88816 23.6681H19.418C22.638 23.6681 24.2248 21.6964 24.3765 19.2931V9.65641C24.5398 7.13641 22.5332 5.00141 20.0015 5.00141C19.2898 5.00141 18.6365 4.59307 18.3098 3.96307L17.4698 2.27141C16.9332 1.20974 15.6963 0.917969 14.5063 0.917969H11.8346C10.633 0.917969 9.06983 1.20974 8.53316 2.27141L7.69316 3.96307C7.3665 4.59307 6.71316 5.00141 6.0015 5.00141C3.46983 5.00141 1.46316 7.13641 1.6265 9.65641L1.6265 19.2931C1.7665 21.6964 3.66816 23.6681 6.88816 23.6681Z" stroke="#BEBEC0" stroke-width="1.5" stroke-linecap="round" stroke-linejoin="round"/>
</svg>
