<svg width="36" height="36" viewBox="0 0 36 36" fill="none" xmlns="http://www.w3.org/2000/svg">
<path d="M18 33C26.2843 33 33 26.2843 33 18C33 9.71573 26.2843 3 18 3C9.71573 3 3 9.71573 3 18C3 26.2843 9.71573 33 18 33Z" fill="#222222" fill-opacity="0.8"/>
<path d="M19.8889 24.4222C19.6039 24.4222 19.3189 24.3172 19.0939 24.0922L13.7989 18.7972C13.3639 18.3622 13.3639 17.6422 13.7989 17.2072L19.0939 11.9122C19.5289 11.4772 20.2489 11.4772 20.6839 11.9122C21.1189 12.3472 21.1189 13.0672 20.6839 13.5022L16.1839 18.0022L20.6839 22.5022C21.1189 22.9372 21.1189 23.6572 20.6839 24.0922C20.4739 24.3172 20.1889 24.4222 19.8889 24.4222Z" fill="#FCFCFC"/>
</svg>
