<svg width="36" height="36" viewBox="0 0 36 36" fill="none" xmlns="http://www.w3.org/2000/svg">
<path d="M18 33C26.2843 33 33 26.2843 33 18C33 9.71573 26.2843 3 18 3C9.71573 3 3 9.71573 3 18C3 26.2843 9.71573 33 18 33Z" fill="#222222" fill-opacity="0.8"/>
<path d="M16.1095 24.4222C15.8245 24.4222 15.5395 24.3172 15.3145 24.0922C14.8795 23.6572 14.8795 22.9372 15.3145 22.5022L19.8145 18.0022L15.3145 13.5022C14.8795 13.0672 14.8795 12.3472 15.3145 11.9122C15.7495 11.4772 16.4695 11.4772 16.9045 11.9122L22.1995 17.2072C22.6345 17.6422 22.6345 18.3622 22.1995 18.7972L16.9045 24.0922C16.6795 24.3172 16.3945 24.4222 16.1095 24.4222Z" fill="#FCFCFC"/>
</svg>
