<svg width="56" height="56" viewBox="0 0 56 56" fill="none" xmlns="http://www.w3.org/2000/svg">
<path d="M28 0C12.572 0 0 12.572 0 28C0 43.428 12.572 56 28 56C43.428 56 56 43.428 56 28C56 12.572 43.428 0 28 0ZM35.812 29.484L25.928 39.368C25.508 39.788 24.976 39.984 24.444 39.984C23.912 39.984 23.38 39.788 22.96 39.368C22.148 38.556 22.148 37.212 22.96 36.4L31.36 28L22.96 19.6C22.148 18.788 22.148 17.444 22.96 16.632C23.772 15.82 25.116 15.82 25.928 16.632L35.812 26.516C36.652 27.328 36.652 28.672 35.812 29.484Z" fill="#6E44FF"/>
</svg>
