<svg width="21" height="20" viewBox="0 0 21 20" fill="none" xmlns="http://www.w3.org/2000/svg">
<path d="M7.58268 15.8332H7.16602C3.83268 15.8332 2.16602 14.9998 2.16602 10.8332V6.6665C2.16602 3.33317 3.83268 1.6665 7.16602 1.6665H13.8327C17.166 1.6665 18.8327 3.33317 18.8327 6.6665V10.8332C18.8327 14.1665 17.166 15.8332 13.8327 15.8332H13.416C13.1577 15.8332 12.9077 15.9582 12.7493 16.1665L11.4993 17.8332C10.9493 18.5665 10.0493 18.5665 9.49935 17.8332L8.24935 16.1665C8.11602 15.9832 7.80768 15.8332 7.58268 15.8332Z" stroke="#363636" stroke-miterlimit="10" stroke-linecap="round" stroke-linejoin="round"/>
<path d="M6.33398 6.6665H14.6673" stroke="#363636" stroke-linecap="round" stroke-linejoin="round"/>
<path d="M6.33398 10.8335H11.334" stroke="#363636" stroke-linecap="round" stroke-linejoin="round"/>
</svg>
