<svg width="27" height="26" viewBox="0 0 27 26" fill="none" xmlns="http://www.w3.org/2000/svg">
<path d="M11.2344 2.83928C12.1973 1.83619 13.8027 1.83619 14.7656 2.83928V2.83928C15.3646 3.46328 16.249 3.72458 17.0909 3.52586V3.52586C18.4373 3.20803 19.7834 4.0921 20.054 5.44882V5.44882C20.2236 6.29919 20.8289 7.01074 21.6449 7.30392V7.30392C22.9516 7.77338 23.609 9.24338 23.1084 10.5385V10.5385C22.7948 11.3497 22.9244 12.2777 23.4528 12.9685V12.9685C24.2999 14.0758 24.0756 15.6682 22.9508 16.492V16.492C22.25 17.0052 21.8689 17.86 21.9434 18.7254V18.7254C22.0621 20.1048 21.0198 21.3336 19.6375 21.412V21.412C18.7732 21.461 17.9949 21.9683 17.5949 22.7361V22.7361C16.9547 23.9651 15.4147 24.4276 14.2118 23.7396V23.7396C13.461 23.3102 12.539 23.3102 11.7882 23.7396V23.7396C10.5853 24.4276 9.04529 23.9651 8.4051 22.7361V22.7361C8.00511 21.9683 7.22685 21.461 6.36247 21.412V21.412C4.98019 21.3336 3.93793 20.1048 4.05665 18.7254V18.7254C4.13113 17.86 3.74996 17.0052 3.0492 16.492V16.492C1.92444 15.6682 1.70015 14.0758 2.54718 12.9685V12.9685C3.07559 12.2777 3.2052 11.3497 2.89161 10.5385V10.5385C2.39096 9.24338 3.04838 7.77338 4.35509 7.30392V7.30392C5.17115 7.01074 5.77637 6.29919 5.946 5.44882V5.44882C6.21664 4.0921 7.5627 3.20803 8.90914 3.52586V3.52586C9.75096 3.72458 10.6354 3.46328 11.2344 2.83928V2.83928Z" fill="url(#paint0_linear_3549_197114)"/>
<path d="M4.89062 13.2106C4.89062 8.61561 8.61561 4.89062 13.2106 4.89062V4.89062C17.8056 4.89062 21.5306 8.61561 21.5306 13.2106V13.3817C21.5306 17.9767 17.8056 21.7017 13.2106 21.7017V21.7017C8.61561 21.7017 4.89062 17.9767 4.89062 13.3817V13.2106Z" fill="black" fill-opacity="0.04"/>
<path d="M20.1947 13.2106V13.3817C20.1947 17.2389 17.0678 20.3658 13.2106 20.3658C9.35341 20.3658 6.22653 17.2389 6.22653 13.3817V13.2106C6.22653 9.35341 9.35341 6.22653 13.2106 6.22653C17.0678 6.22653 20.1947 9.35341 20.1947 13.2106Z" stroke="white" stroke-opacity="0.3" stroke-width="2.67181"/>
<g filter="url(#filter0_d_3549_197114)">
<path d="M11.811 14.8049L10.2135 13.1909C10.1275 13.1038 10.0107 13.0549 9.88892 13.0549C9.76714 13.0549 9.65036 13.1038 9.56435 13.1909C9.3848 13.3723 9.3848 13.6653 9.56435 13.8467L11.4887 15.7909C11.6683 15.9723 11.9583 15.9723 12.1379 15.7909L17.0087 10.87C17.1883 10.6886 17.1883 10.3956 17.0087 10.2142C16.9227 10.1271 16.8059 10.0781 16.6842 10.0781C16.5624 10.0781 16.4456 10.1271 16.3596 10.2142L11.811 14.8049Z" fill="white"/>
<path d="M11.811 14.8049L10.2135 13.1909C10.1275 13.1038 10.0107 13.0549 9.88892 13.0549C9.76714 13.0549 9.65036 13.1038 9.56435 13.1909C9.3848 13.3723 9.3848 13.6653 9.56435 13.8467L11.4887 15.7909C11.6683 15.9723 11.9583 15.9723 12.1379 15.7909L17.0087 10.87C17.1883 10.6886 17.1883 10.3956 17.0087 10.2142C16.9227 10.1271 16.8059 10.0781 16.6842 10.0781C16.5624 10.0781 16.4456 10.1271 16.3596 10.2142L11.811 14.8049Z" stroke="#FDFDFD" stroke-width="0.534363"/>
</g>
<path d="M21.2628 13.2221C21.2628 17.8235 17.5977 21.5537 13.0767 21.5537C8.55566 21.5537 4.89062 17.8235 4.89062 13.2221C4.89062 8.62077 8.55566 4.89062 13.0767 4.89062C17.5977 4.89062 21.2628 8.62077 21.2628 13.2221ZM6.61647 13.2221C6.61647 16.8534 9.50881 19.7972 13.0767 19.7972C16.6446 19.7972 19.5369 16.8534 19.5369 13.2221C19.5369 9.59086 16.6446 6.64713 13.0767 6.64713C9.50881 6.64713 6.61647 9.59086 6.61647 13.2221Z" fill="white" fill-opacity="0.5"/>
<defs>
<filter id="filter0_d_3549_197114" x="0.164062" y="0.8125" width="26.25" height="24.3828" filterUnits="userSpaceOnUse" color-interpolation-filters="sRGB">
<feFlood flood-opacity="0" result="BackgroundImageFix"/>
<feColorMatrix in="SourceAlpha" type="matrix" values="0 0 0 0 0 0 0 0 0 0 0 0 0 0 0 0 0 0 127 0" result="hardAlpha"/>
<feOffset/>
<feGaussianBlur stdDeviation="4.5"/>
<feComposite in2="hardAlpha" operator="out"/>
<feColorMatrix type="matrix" values="0 0 0 0 0.858824 0 0 0 0 0.992157 0 0 0 0 0.580392 0 0 0 0.25 0"/>
<feBlend mode="normal" in2="BackgroundImageFix" result="effect1_dropShadow_3549_197114"/>
<feBlend mode="normal" in="SourceGraphic" in2="effect1_dropShadow_3549_197114" result="shape"/>
</filter>
<linearGradient id="paint0_linear_3549_197114" x1="16.4532" y1="25" x2="8.8839" y2="3.65342" gradientUnits="userSpaceOnUse">
<stop offset="0.0625" stop-color="#87704F"/>
<stop offset="1" stop-color="#CBC6C5"/>
</linearGradient>
</defs>
</svg>
