<svg width="32" height="32" viewBox="0 0 32 32" fill="none" xmlns="http://www.w3.org/2000/svg">
<rect width="32" height="32" rx="8" fill="#BEBEC0" fill-opacity="0.6"/>
<path d="M10.7599 26H21.4998C24.2598 26 25.6199 24.31 25.7499 22.25V13.99C25.8899 11.83 24.1699 9.99997 21.9999 9.99997C21.3899 9.99997 20.8299 9.64997 20.5499 9.10997L19.8299 7.65997C19.3699 6.74997 18.3098 6.49988 17.2898 6.49988H14.9998C13.9698 6.49988 12.6299 6.74997 12.1699 7.65997L11.4499 9.10997C11.1699 9.64997 10.6099 9.99997 9.99992 9.99997C7.82992 9.99997 6.10992 11.83 6.24992 13.99L6.24992 22.25C6.36992 24.31 7.99992 26 10.7599 26Z" stroke="#110E18" stroke-width="1.5" stroke-linecap="round" stroke-linejoin="round"/>
<path d="M16 22C17.79 22 19.25 20.54 19.25 18.75C19.25 16.96 17.79 15.5 16 15.5C14.21 15.5 12.75 16.96 12.75 18.75C12.75 20.54 14.21 22 16 22Z" stroke="#110E18" stroke-width="1.5" stroke-linecap="round" stroke-linejoin="round"/>
</svg>
