<svg width="56" height="56" viewBox="0 0 56 56" fill="none" xmlns="http://www.w3.org/2000/svg">
<g clip-path="url(#clip0_1929_238177)">
<rect x="1" y="1" width="54" height="54" rx="11" stroke="#6E44FF" stroke-width="2" stroke-dasharray="6 6"/>
<path d="M33.3184 14.3984H22.1451C17.2918 14.3984 14.3984 17.2918 14.3984 22.1451V33.3051C14.3984 38.1718 17.2918 41.0651 22.1451 41.0651H33.3051C38.1584 41.0651 41.0518 38.1718 41.0518 33.3184V22.1451C41.0651 17.2918 38.1718 14.3984 33.3184 14.3984ZM33.0651 28.7318H28.7318V33.0651C28.7318 33.6118 28.2784 34.0651 27.7318 34.0651C27.1851 34.0651 26.7318 33.6118 26.7318 33.0651V28.7318H22.3984C21.8518 28.7318 21.3984 28.2784 21.3984 27.7318C21.3984 27.1851 21.8518 26.7318 22.3984 26.7318H26.7318V22.3984C26.7318 21.8518 27.1851 21.3984 27.7318 21.3984C28.2784 21.3984 28.7318 21.8518 28.7318 22.3984V26.7318H33.0651C33.6118 26.7318 34.0651 27.1851 34.0651 27.7318C34.0651 28.2784 33.6118 28.7318 33.0651 28.7318Z" fill="#6E44FF"/>
</g>
<defs>
<clipPath id="clip0_1929_238177">
<rect width="56" height="56" fill="white"/>
</clipPath>
</defs>
</svg>
