<svg width="20" height="20" viewBox="0 0 20 20" fill="none" xmlns="http://www.w3.org/2000/svg">
<path d="M18.1766 3.28421C16.8932 6.48421 13.6766 10.8342 10.9849 12.9925L9.34323 14.3092C9.1349 14.4592 8.92656 14.5925 8.69323 14.6842C8.69323 14.5342 8.6849 14.3675 8.6599 14.2092C8.56823 13.5092 8.25156 12.8592 7.69323 12.3009C7.12656 11.7342 6.4349 11.4009 5.72656 11.3092C5.5599 11.3009 5.39323 11.2842 5.22656 11.3009C5.31823 11.0425 5.4599 10.8009 5.6349 10.6009L6.9349 8.95921C9.0849 6.26754 13.4516 3.03421 16.6432 1.75921C17.1349 1.57587 17.6099 1.70921 17.9099 2.01754C18.2266 2.32587 18.3766 2.80087 18.1766 3.28421Z" stroke="#BEBEC0" stroke-linecap="round" stroke-linejoin="round"/>
<path d="M8.69369 14.6837C8.69369 15.6003 8.34369 16.4753 7.68535 17.142C7.17702 17.6503 6.48535 18.0003 5.66035 18.1087L3.61035 18.3337C2.49369 18.4587 1.53535 17.5087 1.66869 16.3753L1.89369 14.3253C2.09369 12.5003 3.61869 11.3337 5.23535 11.3003C5.40202 11.292 5.57702 11.3003 5.73535 11.3087C6.44369 11.4003 7.13535 11.7253 7.70202 12.3003C8.26035 12.8587 8.57702 13.5087 8.66868 14.2087C8.67702 14.367 8.69369 14.5253 8.69369 14.6837Z" stroke="#BEBEC0" stroke-linecap="round" stroke-linejoin="round"/>
<path d="M11.8635 12.0589C11.8635 9.88385 10.0969 8.11719 7.92188 8.11719" stroke="#BEBEC0" stroke-linecap="round" stroke-linejoin="round"/>
</svg>
