<svg width="14" height="14" viewBox="0 0 14 14" fill="none" xmlns="http://www.w3.org/2000/svg">
<path d="M6.9987 0.335938C3.32536 0.335938 0.332031 3.32927 0.332031 7.0026C0.332031 10.6759 3.32536 13.6693 6.9987 13.6693C10.672 13.6693 13.6654 10.6759 13.6654 7.0026C13.6654 3.32927 10.672 0.335938 6.9987 0.335938ZM6.4987 4.33594C6.4987 4.0626 6.72536 3.83594 6.9987 3.83594C7.27203 3.83594 7.4987 4.0626 7.4987 4.33594V7.66927C7.4987 7.9426 7.27203 8.16927 6.9987 8.16927C6.72536 8.16927 6.4987 7.9426 6.4987 7.66927V4.33594ZM7.61203 9.9226C7.5787 10.0093 7.53203 10.0759 7.47203 10.1426C7.40536 10.2026 7.33203 10.2493 7.25203 10.2826C7.17203 10.3159 7.08536 10.3359 6.9987 10.3359C6.91203 10.3359 6.82536 10.3159 6.74536 10.2826C6.66536 10.2493 6.59203 10.2026 6.52536 10.1426C6.46536 10.0759 6.4187 10.0093 6.38536 9.9226C6.35203 9.8426 6.33203 9.75594 6.33203 9.66927C6.33203 9.5826 6.35203 9.49594 6.38536 9.41594C6.4187 9.33594 6.46536 9.2626 6.52536 9.19594C6.59203 9.13594 6.66536 9.08927 6.74536 9.05594C6.90536 8.98927 7.09203 8.98927 7.25203 9.05594C7.33203 9.08927 7.40536 9.13594 7.47203 9.19594C7.53203 9.2626 7.5787 9.33594 7.61203 9.41594C7.64536 9.49594 7.66536 9.5826 7.66536 9.66927C7.66536 9.75594 7.64536 9.8426 7.61203 9.9226Z" fill="#FFB02E"/>
</svg>
