<svg width="16" height="16" viewBox="0 0 16 16" fill="none" xmlns="http://www.w3.org/2000/svg">
<path d="M7.9987 1.33594C4.32536 1.33594 1.33203 4.32927 1.33203 8.0026C1.33203 11.6759 4.32536 14.6693 7.9987 14.6693C11.672 14.6693 14.6654 11.6759 14.6654 8.0026C14.6654 4.32927 11.672 1.33594 7.9987 1.33594ZM7.4987 5.33594C7.4987 5.0626 7.72536 4.83594 7.9987 4.83594C8.27203 4.83594 8.4987 5.0626 8.4987 5.33594V8.66927C8.4987 8.9426 8.27203 9.16927 7.9987 9.16927C7.72536 9.16927 7.4987 8.9426 7.4987 8.66927V5.33594ZM8.61203 10.9226C8.5787 11.0093 8.53203 11.0759 8.47203 11.1426C8.40536 11.2026 8.33203 11.2493 8.25203 11.2826C8.17203 11.3159 8.08536 11.3359 7.9987 11.3359C7.91203 11.3359 7.82536 11.3159 7.74536 11.2826C7.66536 11.2493 7.59203 11.2026 7.52536 11.1426C7.46536 11.0759 7.4187 11.0093 7.38536 10.9226C7.35203 10.8426 7.33203 10.7559 7.33203 10.6693C7.33203 10.5826 7.35203 10.4959 7.38536 10.4159C7.4187 10.3359 7.46536 10.2626 7.52536 10.1959C7.59203 10.1359 7.66536 10.0893 7.74536 10.0559C7.90536 9.98927 8.09203 9.98927 8.25203 10.0559C8.33203 10.0893 8.40536 10.1359 8.47203 10.1959C8.53203 10.2626 8.5787 10.3359 8.61203 10.4159C8.64536 10.4959 8.66536 10.5826 8.66536 10.6693C8.66536 10.7559 8.64536 10.8426 8.61203 10.9226Z" fill="#E6740B"/>
</svg>
