<svg width="20" height="20" viewBox="0 0 20 20" fill="none" xmlns="http://www.w3.org/2000/svg">
<path d="M8.52869 1.53274C9.3311 0.696826 10.6689 0.696826 11.4713 1.53274C11.9705 2.05273 12.7075 2.27048 13.4091 2.10488C14.5311 1.84003 15.6528 2.57675 15.8783 3.70735C16.0197 4.41599 16.524 5.00895 17.2041 5.25327C18.293 5.64449 18.8409 6.86949 18.4237 7.94873C18.1623 8.62473 18.2703 9.39809 18.7107 9.97375C19.4165 10.8965 19.2296 12.2235 18.2923 12.91C17.7084 13.3377 17.3907 14.05 17.4528 14.7712C17.5517 15.9207 16.6832 16.9447 15.5313 17.01C14.811 17.0508 14.1624 17.4736 13.8291 18.1135C13.2956 19.1375 12.0122 19.523 11.0099 18.9497C10.3842 18.5918 9.61582 18.5918 8.99013 18.9497C7.98778 19.523 6.70441 19.1375 6.17092 18.1135C5.83759 17.4736 5.18904 17.0508 4.46872 17.01C3.31683 16.9447 2.44827 15.9207 2.54721 14.7712C2.60927 14.05 2.29163 13.3377 1.70767 12.91C0.770363 12.2235 0.583454 10.8965 1.28932 9.97375C1.72966 9.39809 1.83766 8.62473 1.57634 7.94873C1.15913 6.86949 1.70698 5.64449 2.79591 5.25327C3.47596 5.00895 3.98031 4.41599 4.12167 3.70735C4.3472 2.57675 5.46891 1.84003 6.59095 2.10488C7.29247 2.27048 8.02953 2.05273 8.52869 1.53274Z" fill="url(#paint0_linear_5842_157606)"/>
<path d="M8.52869 1.53274C9.3311 0.696826 10.6689 0.696826 11.4713 1.53274C11.9705 2.05273 12.7075 2.27048 13.4091 2.10488C14.5311 1.84003 15.6528 2.57675 15.8783 3.70735C16.0197 4.41599 16.524 5.00895 17.2041 5.25327C18.293 5.64449 18.8409 6.86949 18.4237 7.94873C18.1623 8.62473 18.2703 9.39809 18.7107 9.97375C19.4165 10.8965 19.2296 12.2235 18.2923 12.91C17.7084 13.3377 17.3907 14.05 17.4528 14.7712C17.5517 15.9207 16.6832 16.9447 15.5313 17.01C14.811 17.0508 14.1624 17.4736 13.8291 18.1135C13.2956 19.1375 12.0122 19.523 11.0099 18.9497C10.3842 18.5918 9.61582 18.5918 8.99013 18.9497C7.98778 19.523 6.70441 19.1375 6.17092 18.1135C5.83759 17.4736 5.18904 17.0508 4.46872 17.01C3.31683 16.9447 2.44827 15.9207 2.54721 14.7712C2.60927 14.05 2.29163 13.3377 1.70767 12.91C0.770363 12.2235 0.583454 10.8965 1.28932 9.97375C1.72966 9.39809 1.83766 8.62473 1.57634 7.94873C1.15913 6.86949 1.70698 5.64449 2.79591 5.25327C3.47596 5.00895 3.98031 4.41599 4.12167 3.70735C4.3472 2.57675 5.46891 1.84003 6.59095 2.10488C7.29247 2.27048 8.02953 2.05273 8.52869 1.53274Z" fill="url(#paint1_linear_5842_157606)" fill-opacity="0.1"/>
<path d="M3.06641 10.1355C3.06641 6.30631 6.17056 3.20215 9.99972 3.20215C13.8289 3.20215 16.933 6.3063 16.933 10.1355V10.2781C16.933 14.1072 13.8289 17.2114 9.99972 17.2114C6.17056 17.2114 3.06641 14.1072 3.06641 10.2781V10.1355Z" fill="black" fill-opacity="0.04"/>
<path d="M4.38326 10.1355C4.38326 7.03358 6.89784 4.519 9.99972 4.519C13.1016 4.519 15.6162 7.03358 15.6162 10.1355V10.2781C15.6162 13.3799 13.1016 15.8945 9.99972 15.8945C6.89784 15.8945 4.38326 13.3799 4.38326 10.2781V10.1355Z" stroke="white" stroke-opacity="0.3" stroke-width="2.63371"/>
<path d="M8.85749 11.4722L7.52621 10.1272C7.45454 10.0546 7.35722 10.0138 7.25574 10.0138C7.15426 10.0138 7.05694 10.0546 6.98526 10.1272C6.83564 10.2784 6.83564 10.5225 6.98526 10.6737L8.58893 12.2939C8.73855 12.445 8.98025 12.445 9.12988 12.2939L13.1889 8.19308C13.3385 8.04192 13.3385 7.79773 13.1889 7.64657C13.1172 7.57399 13.0199 7.5332 12.9184 7.5332C12.817 7.5332 12.7196 7.57399 12.648 7.64657L8.85749 11.4722Z" fill="white" stroke="#FDFDFD" stroke-width="0.526742"/>
<path d="M17.0267 10.2702C17.0267 14.1511 13.8806 17.2972 9.99968 17.2972C6.11876 17.2972 2.97266 14.1511 2.97266 10.2702C2.97266 6.38927 6.11876 3.24316 9.99968 3.24316C13.8806 3.24316 17.0267 6.38927 17.0267 10.2702ZM4.41935 10.2702C4.41935 13.3521 6.91775 15.8505 9.99968 15.8505C13.0816 15.8505 15.58 13.3521 15.58 10.2702C15.58 7.18826 13.0816 4.68986 9.99968 4.68986C6.91775 4.68986 4.41935 7.18826 4.41935 10.2702Z" fill="white" fill-opacity="0.5"/>
<defs>
<linearGradient id="paint0_linear_5842_157606" x1="3.5117" y1="1.87291" x2="14.4816" y2="19.1639" gradientUnits="userSpaceOnUse">
<stop stop-color="#FFE092"/>
<stop offset="1" stop-color="#E3A302"/>
</linearGradient>
<linearGradient id="paint1_linear_5842_157606" x1="-3.43469" y1="-1.5625" x2="11.758" y2="25.5551" gradientUnits="userSpaceOnUse">
<stop stop-color="white"/>
<stop offset="1" stop-color="white" stop-opacity="0"/>
</linearGradient>
</defs>
</svg>
