<svg width="26" height="24" viewBox="0 0 26 24" fill="none" xmlns="http://www.w3.org/2000/svg">
<path d="M11.5287 3.53274C12.3311 2.69683 13.6689 2.69683 14.4713 3.53274C14.9705 4.05273 15.7075 4.27048 16.4091 4.10488C17.5311 3.84003 18.6528 4.57675 18.8783 5.70735C19.0197 6.41599 19.524 7.00895 20.2041 7.25327C21.293 7.64449 21.8409 8.86949 21.4237 9.94873C21.1623 10.6247 21.2703 11.3981 21.7107 11.9737C22.4165 12.8965 22.2296 14.2235 21.2923 14.91C20.7084 15.3377 20.3907 16.05 20.4528 16.7712C20.5517 17.9207 19.6832 18.9447 18.5313 19.01C17.811 19.0508 17.1624 19.4736 16.8291 20.1135C16.2956 21.1375 15.0122 21.523 14.0099 20.9497C13.3842 20.5918 12.6158 20.5918 11.9901 20.9497C10.9878 21.523 9.70441 21.1375 9.17092 20.1135C8.83759 19.4736 8.18904 19.0508 7.46872 19.01C6.31683 18.9447 5.44827 17.9207 5.54721 16.7712C5.60927 16.05 5.29163 15.3377 4.70767 14.91C3.77036 14.2235 3.58345 12.8965 4.28932 11.9737C4.72966 11.3981 4.83766 10.6247 4.57634 9.94873C4.15913 8.86949 4.70698 7.64449 5.79591 7.25327C6.47596 7.00895 6.98031 6.41599 7.12167 5.70735C7.3472 4.57675 8.46891 3.84003 9.59095 4.10488C10.2925 4.27048 11.0295 4.05273 11.5287 3.53274Z" fill="url(#paint0_linear_5842_175755)"/>
<path d="M6.24414 12.1765C6.24414 8.34732 9.34829 5.24316 13.1775 5.24316C17.0066 5.24316 20.1108 8.34732 20.1108 12.1765V12.3191C20.1108 16.1482 17.0066 19.2524 13.1775 19.2524C9.34829 19.2524 6.24414 16.1482 6.24414 12.3191V12.1765Z" fill="black" fill-opacity="0.04"/>
<path d="M7.58005 12.1765C7.58005 9.08512 10.0861 6.57907 13.1775 6.57907C16.2688 6.57907 18.7749 9.08512 18.7749 12.1765V12.3191C18.7749 15.4104 16.2688 17.9165 13.1775 17.9165C10.0861 17.9165 7.58005 15.4104 7.58005 12.3191V12.1765Z" stroke="white" stroke-opacity="0.3" stroke-width="2.67181"/>
<g filter="url(#filter0_d_5842_175755)">
<path d="M12.0118 13.5063L10.6805 12.1614C10.6088 12.0888 10.5115 12.048 10.41 12.048C10.3086 12.048 10.2112 12.0888 10.1396 12.1614C9.98994 12.3125 9.98994 12.5567 10.1396 12.7079L11.7432 14.328C11.8929 14.4792 12.1346 14.4792 12.2842 14.328L16.3432 10.2273C16.4928 10.0761 16.4928 9.83191 16.3432 9.68075C16.2715 9.60817 16.1742 9.56738 16.0727 9.56738C15.9713 9.56738 15.8739 9.60817 15.8023 9.68075L12.0118 13.5063Z" fill="white"/>
<path d="M12.0118 13.5063L10.6805 12.1614C10.6088 12.0888 10.5115 12.048 10.41 12.048C10.3086 12.048 10.2112 12.0888 10.1396 12.1614C9.98994 12.3125 9.98994 12.5567 10.1396 12.7079L11.7432 14.328C11.8929 14.4792 12.1346 14.4792 12.2842 14.328L16.3432 10.2273C16.4928 10.0761 16.4928 9.83191 16.3432 9.68075C16.2715 9.60817 16.1742 9.56738 16.0727 9.56738C15.9713 9.56738 15.8739 9.60817 15.8023 9.68075L12.0118 13.5063Z" stroke="#FDFDFD" stroke-width="0.534363"/>
</g>
<path d="M19.8876 12.1861C19.8876 16.0206 16.8334 19.129 13.0659 19.129C9.29833 19.129 6.24414 16.0206 6.24414 12.1861C6.24414 8.35162 9.29833 5.24316 13.0659 5.24316C16.8334 5.24316 19.8876 8.35162 19.8876 12.1861ZM7.68234 12.1861C7.68234 15.2122 10.0926 17.6653 13.0659 17.6653C16.0391 17.6653 18.4494 15.2122 18.4494 12.1861C18.4494 9.16003 16.0391 6.70692 13.0659 6.70692C10.0926 6.70692 7.68234 9.16003 7.68234 12.1861Z" fill="white" fill-opacity="0.5"/>
<defs>
<filter id="filter0_d_5842_175755" x="0.759766" y="0.299805" width="24.9629" height="23.4092" filterUnits="userSpaceOnUse" color-interpolation-filters="sRGB">
<feFlood flood-opacity="0" result="BackgroundImageFix"/>
<feColorMatrix in="SourceAlpha" type="matrix" values="0 0 0 0 0 0 0 0 0 0 0 0 0 0 0 0 0 0 127 0" result="hardAlpha"/>
<feOffset/>
<feGaussianBlur stdDeviation="4.5"/>
<feComposite in2="hardAlpha" operator="out"/>
<feColorMatrix type="matrix" values="0 0 0 0 0.858824 0 0 0 0 0.992157 0 0 0 0 0.580392 0 0 0 0.25 0"/>
<feBlend mode="normal" in2="BackgroundImageFix" result="effect1_dropShadow_5842_175755"/>
<feBlend mode="normal" in="SourceGraphic" in2="effect1_dropShadow_5842_175755" result="shape"/>
</filter>
<linearGradient id="paint0_linear_5842_175755" x1="15.8777" y1="22" x2="9.56992" y2="4.21118" gradientUnits="userSpaceOnUse">
<stop offset="0.0625" stop-color="#87704F"/>
<stop offset="1" stop-color="#CBC6C5"/>
</linearGradient>
</defs>
</svg>
