<svg width="32" height="32" viewBox="0 0 32 32" fill="none" xmlns="http://www.w3.org/2000/svg">
<path d="M23.9747 14.3867V19.72C23.9747 20.0667 23.9613 20.4 23.9213 20.72C23.6146 24.32 21.4946 26.1066 17.588 26.1066H17.0546C16.7213 26.1066 16.4013 26.2667 16.2013 26.5333L14.6013 28.6667C13.8947 29.6133 12.748 29.6133 12.0413 28.6667L10.4413 26.5333C10.268 26.3067 9.88131 26.1066 9.58797 26.1066H9.05465C4.80131 26.1066 2.66797 25.0533 2.66797 19.72V14.3867C2.66797 10.48 4.46798 8.36001 8.05465 8.05334C8.37465 8.01334 8.70798 8 9.05465 8H17.588C21.8413 8 23.9747 10.1333 23.9747 14.3867Z" stroke="#6E44FF" stroke-width="1.5" stroke-miterlimit="10" stroke-linecap="round" stroke-linejoin="round"/>
<path d="M29.308 9.05465V14.388C29.308 18.308 27.508 20.4146 23.9213 20.7213C23.9613 20.4013 23.9747 20.068 23.9747 19.7213V14.388C23.9747 10.1346 21.8413 8.0013 17.588 8.0013H9.05469C8.70802 8.0013 8.37469 8.01465 8.05469 8.05465C8.36135 4.46798 10.4814 2.66797 14.388 2.66797H22.9213C27.1747 2.66797 29.308 4.80131 29.308 9.05465Z" stroke="#6E44FF" stroke-width="1.5" stroke-miterlimit="10" stroke-linecap="round" stroke-linejoin="round"/>
<path d="M17.9927 17.6667H18.0047" stroke="#6E44FF" stroke-width="2" stroke-linecap="round" stroke-linejoin="round"/>
<path d="M13.3286 17.6667H13.3406" stroke="#6E44FF" stroke-width="2" stroke-linecap="round" stroke-linejoin="round"/>
<path d="M8.66067 17.6667H8.67267" stroke="#6E44FF" stroke-width="2" stroke-linecap="round" stroke-linejoin="round"/>
</svg>
