<svg width="110" height="24" viewBox="0 0 110 24" fill="none" xmlns="http://www.w3.org/2000/svg">
<path d="M12.5748 10.68C15.3618 11.85 16.888 14.19 16.888 17.01C16.888 21.51 12.9066 24 8.6598 24C8.6598 24 8.6598 24 8.62663 24V19.68C8.6598 19.68 8.6598 19.68 8.6598 19.68C10.4182 19.68 11.9776 18.6 11.9776 17.01C11.9776 15.24 10.1528 14.16 8.6598 14.1C8.42756 14.1 6.63593 14.1 4.7116 13.29C1.95781 12.15 0.398438 10.02 0.398438 7.23C0.398438 2.73 4.413 0 8.6598 0C13.2052 0 16.7221 2.76 16.7885 6.84C16.8216 6.93 16.6557 7.08 16.4235 7.08H12.2762C12.0772 7.08 11.9113 6.93 11.9113 6.84C11.8449 5.13 10.3851 4.32 8.6598 4.32C6.835 4.32 5.34198 5.31 5.34198 7.23C5.34198 8.97 6.96772 9.87 8.6598 9.87C8.8257 9.87 10.6837 9.87 12.5748 10.68Z" fill="#6E44FF"/>
<path d="M31.6676 12.06C31.6676 13.29 30.5727 14.31 29.1792 14.31C27.7857 14.31 26.6908 13.29 26.6908 12.06C26.6908 10.8 27.7857 9.78 29.1792 9.78C30.5727 9.78 31.6676 10.8 31.6676 12.06ZM41.9528 11.97C41.9528 17.97 37.6728 24 29.2124 24C20.6192 24 16.4056 17.97 16.4056 11.97C16.4056 6 20.6192 0 29.2124 0C37.6728 0 41.9528 6 41.9528 11.97ZM36.9761 12.06C36.9761 8.13 34.355 4.23 29.2124 4.23C24.0034 4.23 21.4155 8.13 21.4155 12.06C21.4155 15.93 24.0034 19.8 29.2124 19.8C34.355 19.8 36.9761 15.93 36.9761 12.06Z" fill="#6E44FF"/>
<path d="M57.0362 19.59H62.1124V23.73C62.1124 23.85 61.9797 24 61.7475 24H57.4343C50.8319 24 41.8737 22.26 41.8737 12C41.8737 1.35 50.9314 0 57.4343 0H61.7475C61.9797 0 62.1124 0.15 62.1124 0.27V9.69H57.0362V4.38C51.2632 4.11 46.9832 6.3 46.9832 12C46.9832 19.41 53.8179 19.71 57.0362 19.59Z" fill="#6E44FF"/>
<path d="M77.0634 12.06C77.0634 13.29 75.9685 14.31 74.575 14.31C73.1815 14.31 72.0866 13.29 72.0866 12.06C72.0866 10.8 73.1815 9.78 74.575 9.78C75.9685 9.78 77.0634 10.8 77.0634 12.06ZM87.3486 11.97C87.3486 17.97 83.0686 24 74.6082 24C66.015 24 61.8014 17.97 61.8014 11.97C61.8014 6 66.015 0 74.6082 0C83.0686 0 87.3486 6 87.3486 11.97ZM82.3719 12.06C82.3719 8.13 79.7508 4.23 74.6082 4.23C69.3992 4.23 66.8113 8.13 66.8113 12.06C66.8113 15.93 69.3992 19.8 74.6082 19.8C79.7508 19.8 82.3719 15.93 82.3719 12.06Z" fill="#6E44FF"/>
<path d="M109.233 0C109.466 0 109.598 0.15 109.598 0.27V23.73C109.598 23.85 109.466 24 109.233 24H104.854C104.788 24 104.589 23.97 104.555 23.91L92.3458 8.1V18.24H87.2695V0.27C87.2695 0.15 87.4354 0 87.6013 0H92.014C92.0804 0 92.2794 0.0299999 92.3126 0.0899991L104.555 15.9V0.27C104.555 0.15 104.721 0 104.953 0H109.233Z" fill="#6E44FF"/>
</svg>
