<svg width="20" height="20" viewBox="0 0 20 20" fill="none" xmlns="http://www.w3.org/2000/svg">
<path d="M13.493 1.66406H6.50964C3.4763 1.66406 1.66797 3.4724 1.66797 6.50573V13.4807C1.66797 16.5224 3.4763 18.3307 6.50964 18.3307H13.4846C16.518 18.3307 18.3263 16.5224 18.3263 13.4891V6.50573C18.3346 3.4724 16.5263 1.66406 13.493 1.66406ZM13.9846 8.08073L9.25963 12.8057C9.14297 12.9224 8.98464 12.9891 8.81797 12.9891C8.6513 12.9891 8.49297 12.9224 8.3763 12.8057L6.01797 10.4474C5.7763 10.2057 5.7763 9.80573 6.01797 9.56406C6.25963 9.3224 6.65964 9.3224 6.9013 9.56406L8.81797 11.4807L13.1013 7.1974C13.343 6.95573 13.743 6.95573 13.9846 7.1974C14.2263 7.43906 14.2263 7.83073 13.9846 8.08073Z" fill="#734BFE"/>
</svg>
