<svg width="22" height="18" viewBox="0 0 22 18" fill="none" xmlns="http://www.w3.org/2000/svg">
<path d="M4.58333 6.00003L5.5 0H16.5L17.4167 6.00003L22 8.14289C19.25 9.85719 2.75 9.85719 0 8.14289L4.58333 6.00003Z" fill="#FCFCFC"/>
<path fill-rule="evenodd" clip-rule="evenodd" d="M9.56971 15.4286C9.17891 16.9074 7.80077 18 6.16062 18C4.21658 18 2.64062 16.465 2.64062 14.5714C2.64062 12.6779 4.21658 11.1428 6.16062 11.1428C7.80084 11.1428 9.17903 12.2355 9.56975 13.7144H12.432C12.8227 12.2355 14.2009 11.1428 15.8411 11.1428C17.7852 11.1428 19.3611 12.6779 19.3611 14.5714C19.3611 16.465 17.7852 18 15.8411 18C14.201 18 12.8228 16.9074 12.432 15.4286H9.56971Z" fill="#FCFCFC"/>
</svg>
