<svg width="36" height="36" viewBox="0 0 36 36" fill="none" xmlns="http://www.w3.org/2000/svg">
<circle cx="18" cy="18" r="18" fill="#191622" fill-opacity="0.5"/>
<path d="M27 11.9766C23.67 11.6466 20.32 11.4766 16.98 11.4766C15 11.4766 13.02 11.5766 11.04 11.7766L9 11.9766" stroke="#FCFCFC" stroke-width="1.5" stroke-linecap="round" stroke-linejoin="round"/>
<path d="M14.5 10.97L14.72 9.66C14.88 8.71 15 8 16.69 8H19.31C21 8 21.13 8.75 21.28 9.67L21.5 10.97" stroke="#FCFCFC" stroke-width="1.5" stroke-linecap="round" stroke-linejoin="round"/>
<path d="M24.8484 15.1406L24.1984 25.2106C24.0884 26.7806 23.9984 28.0006 21.2084 28.0006H14.7884C11.9984 28.0006 11.9084 26.7806 11.7984 25.2106L11.1484 15.1406" stroke="#FCFCFC" stroke-width="1.5" stroke-linecap="round" stroke-linejoin="round"/>
<path d="M16.3281 22.5H19.6581" stroke="#FCFCFC" stroke-width="1.5" stroke-linecap="round" stroke-linejoin="round"/>
<path d="M15.5 18.5H20.5" stroke="#FCFCFC" stroke-width="1.5" stroke-linecap="round" stroke-linejoin="round"/>
</svg>
