<svg width="32" height="32" viewBox="0 0 32 32" fill="none" xmlns="http://www.w3.org/2000/svg">
<path d="M23.7338 2.8L10.4938 6.12C8.56045 6.6 6.60045 8.56 6.12045 10.4933L2.80045 23.7333C1.80045 27.7333 4.25378 30.2 8.26711 29.2L21.5071 25.8933C23.4271 25.4133 25.4004 23.44 25.8804 21.52L29.2004 8.26666C30.2004 4.26666 27.7338 1.8 23.7338 2.8Z" stroke="#D9D9D9" stroke-width="1.5" stroke-linecap="round" stroke-linejoin="round"/>
<path d="M15.9997 20.6667C18.577 20.6667 20.6663 18.5773 20.6663 16C20.6663 13.4227 18.577 11.3333 15.9997 11.3333C13.4223 11.3333 11.333 13.4227 11.333 16C11.333 18.5773 13.4223 20.6667 15.9997 20.6667Z" stroke="#D9D9D9" stroke-width="1.5" stroke-linecap="round" stroke-linejoin="round"/>
</svg>
