<svg width="32" height="32" viewBox="0 0 32 32" fill="none" xmlns="http://www.w3.org/2000/svg">
<path d="M23.7338 2.79992L10.4938 6.11992C8.56045 6.59992 6.60045 8.55992 6.12045 10.4933L2.80045 23.7333C1.80045 27.7333 4.25378 30.1999 8.26711 29.1999L21.5071 25.8933C23.4271 25.4133 25.4004 23.4399 25.8804 21.5199L29.2004 8.26659C30.2004 4.26659 27.7338 1.79992 23.7338 2.79992Z" stroke="#696969" stroke-width="1.5" stroke-linecap="round" stroke-linejoin="round"/>
<path d="M15.9997 20.6666C18.577 20.6666 20.6663 18.5772 20.6663 15.9999C20.6663 13.4226 18.577 11.3333 15.9997 11.3333C13.4223 11.3333 11.333 13.4226 11.333 15.9999C11.333 18.5772 13.4223 20.6666 15.9997 20.6666Z" stroke="#696969" stroke-width="1.5" stroke-linecap="round" stroke-linejoin="round"/>
</svg>
