<svg width="32" height="32" viewBox="0 0 32 32" fill="none" xmlns="http://www.w3.org/2000/svg">
<path d="M27.1501 8.47891L27.1499 8.47881L19.4703 3.10576C17.1078 1.45046 13.5338 1.53915 11.2606 3.30047L11.2586 3.30208L4.57871 8.51529C4.57866 8.51533 4.57861 8.51537 4.57855 8.51541C3.80162 9.12147 3.14043 10.0143 2.67379 10.962C2.20732 11.9094 1.90332 12.9767 1.90332 13.96V23.16C1.90332 26.9721 4.997 30.0833 8.81332 30.0833H23.1867C27.0009 30.0833 30.0967 26.9875 30.0967 23.1733V14.1333C30.0967 13.0844 29.7628 11.9621 29.2482 10.9762C28.7335 9.9904 28.0046 9.07705 27.1501 8.47891ZM16.25 24C16.25 24.1324 16.1324 24.25 16 24.25C15.8675 24.25 15.75 24.1324 15.75 24V20C15.75 19.8675 15.8675 19.75 16 19.75C16.1324 19.75 16.25 19.8675 16.25 20V24Z" stroke="#696969" stroke-width="1.5"/>
</svg>
