<svg width="36" height="36" viewBox="0 0 36 36" fill="none" xmlns="http://www.w3.org/2000/svg">
<path d="M26.97 16.185V22.185C26.97 22.575 26.955 22.95 26.91 23.31C26.565 27.36 24.18 29.37 19.785 29.37H19.185C18.81 29.37 18.45 29.55 18.225 29.85L16.425 32.25C15.63 33.315 14.34 33.315 13.545 32.25L11.745 29.85C11.55 29.595 11.115 29.37 10.785 29.37H10.185C5.40001 29.37 3 28.185 3 22.185V16.185C3 11.79 5.02501 9.40501 9.06001 9.06001C9.42001 9.01501 9.79501 9 10.185 9H19.785C24.57 9 26.97 11.4 26.97 16.185Z" stroke="#D9D9D9" stroke-width="1.5" stroke-miterlimit="10" stroke-linecap="round" stroke-linejoin="round"/>
<path d="M32.9696 10.185V16.185C32.9696 20.595 30.9446 22.965 26.9096 23.31C26.9546 22.95 26.9696 22.575 26.9696 22.185V16.185C26.9696 11.4 24.5696 9 19.7846 9H10.1846C9.79457 9 9.41957 9.01501 9.05957 9.06001C9.40457 5.02501 11.7896 3 16.1846 3H25.7846C30.5696 3 32.9696 5.40001 32.9696 10.185Z" stroke="#D9D9D9" stroke-width="1.5" stroke-miterlimit="10" stroke-linecap="round" stroke-linejoin="round"/>
<path d="M20.2432 19.875H20.2567" stroke="#D9D9D9" stroke-width="2" stroke-linecap="round" stroke-linejoin="round"/>
<path d="M14.9932 19.875H15.0067" stroke="#D9D9D9" stroke-width="2" stroke-linecap="round" stroke-linejoin="round"/>
<path d="M9.74325 19.875H9.75675" stroke="#D9D9D9" stroke-width="2" stroke-linecap="round" stroke-linejoin="round"/>
</svg>
