<svg width="36" height="36" viewBox="0 0 36 36" fill="none" xmlns="http://www.w3.org/2000/svg">
<path d="M18.0299 4.36499C13.0649 4.36499 9.02989 8.39999 9.02989 13.365V17.7C9.02989 18.615 8.63989 20.01 8.17489 20.79L6.44989 23.655C5.38489 25.425 6.11989 27.39 8.06989 28.05C14.5349 30.21 21.5099 30.21 27.9749 28.05C29.7899 27.45 30.5849 25.305 29.5949 23.655L27.8699 20.79C27.4199 20.01 27.0299 18.615 27.0299 17.7V13.365C27.0299 8.41499 22.9799 4.36499 18.0299 4.36499Z" stroke="#696969" stroke-width="1.5" stroke-miterlimit="10" stroke-linecap="round"/>
<path d="M20.8049 4.79991C20.3399 4.66491 19.8599 4.55991 19.3649 4.49991C17.9249 4.31991 16.5449 4.42491 15.2549 4.79991C15.6899 3.68991 16.7699 2.90991 18.0299 2.90991C19.2899 2.90991 20.3699 3.68991 20.8049 4.79991Z" stroke="#696969" stroke-width="1.5" stroke-miterlimit="10" stroke-linecap="round" stroke-linejoin="round"/>
<path d="M22.5303 28.5901C22.5303 31.0651 20.5053 33.0901 18.0303 33.0901C16.8003 33.0901 15.6603 32.5801 14.8503 31.7701C14.0403 30.9601 13.5303 29.8201 13.5303 28.5901" stroke="#696969" stroke-width="1.5" stroke-miterlimit="10"/>
</svg>
