<svg width="36" height="36" viewBox="0 0 36 36" fill="none" xmlns="http://www.w3.org/2000/svg">
<path d="M18.0299 4.36499C13.0649 4.36499 9.02989 8.39999 9.02989 13.365V17.7C9.02989 18.615 8.63989 20.01 8.17489 20.79L6.44989 23.655C5.38489 25.425 6.11989 27.39 8.06989 28.05C14.5349 30.21 21.5099 30.21 27.9749 28.05C29.7899 27.45 30.5849 25.305 29.5949 23.655L27.8699 20.79C27.4199 20.01 27.0299 18.615 27.0299 17.7V13.365C27.0299 8.41499 22.9799 4.36499 18.0299 4.36499Z" stroke="#D9D9D9" stroke-width="1.5" stroke-miterlimit="10" stroke-linecap="round"/>
<path d="M20.8049 4.8C20.3399 4.665 19.8599 4.56 19.3649 4.5C17.9249 4.32 16.5449 4.425 15.2549 4.8C15.6899 3.69 16.7699 2.91 18.0299 2.91C19.2899 2.91 20.3699 3.69 20.8049 4.8Z" stroke="#D9D9D9" stroke-width="1.5" stroke-miterlimit="10" stroke-linecap="round" stroke-linejoin="round"/>
<path d="M22.5303 28.59C22.5303 31.065 20.5053 33.09 18.0303 33.09C16.8003 33.09 15.6603 32.58 14.8503 31.77C14.0403 30.96 13.5303 29.82 13.5303 28.59" stroke="#D9D9D9" stroke-width="1.5" stroke-miterlimit="10"/>
</svg>
