<svg width="32" height="32" viewBox="0 0 32 32" fill="none" xmlns="http://www.w3.org/2000/svg">
<path d="M27.9735 4.0268C26.8135 2.8668 25.1735 2.41347 23.5868 2.81347L10.5201 6.08014C8.32014 6.6268 6.6268 8.33347 6.08014 10.5201L2.81347 23.6001C2.41347 25.1868 2.8668 26.8268 4.0268 27.9868C4.9068 28.8535 6.0668 29.3335 7.2668 29.3335C7.64014 29.3335 8.0268 29.2935 8.40014 29.1868L21.4801 25.9201C23.6668 25.3735 25.3735 23.6801 25.9201 21.4801L29.1868 8.40014C29.5868 6.81347 29.1335 5.17347 27.9735 4.0268ZM16.0001 21.1735C13.1468 21.1735 10.8268 18.8535 10.8268 16.0001C10.8268 13.1468 13.1468 10.8268 16.0001 10.8268C18.8535 10.8268 21.1735 13.1468 21.1735 16.0001C21.1735 18.8535 18.8535 21.1735 16.0001 21.1735Z" fill="#6E44FF"/>
</svg>
