<svg width="36" height="36" viewBox="0 0 36 36" fill="none" xmlns="http://www.w3.org/2000/svg">
<path d="M29.0099 21.735L27.5099 19.245C27.1949 18.69 26.9099 17.64 26.9099 17.025V13.23C26.9099 9.705 24.8399 6.66 21.8549 5.235C21.0749 3.855 19.6349 3 17.9849 3C16.3499 3 14.8799 3.885 14.0999 5.28C11.1749 6.735 9.14991 9.75 9.14991 13.23V17.025C9.14991 17.64 8.86491 18.69 8.54991 19.23L7.03491 21.735C6.43491 22.74 6.29991 23.85 6.67491 24.87C7.03491 25.875 7.88991 26.655 8.99991 27.03C11.9099 28.02 14.9699 28.5 18.0299 28.5C21.0899 28.5 24.1499 28.02 27.0599 27.045C28.1099 26.7 28.9199 25.905 29.3099 24.87C29.6999 23.835 29.5949 22.695 29.0099 21.735Z" fill="#6E44FF"/>
<path d="M22.2445 30.015C21.6145 31.755 19.9495 33 17.9995 33C16.8145 33 15.6445 32.52 14.8195 31.665C14.3395 31.215 13.9795 30.615 13.7695 30C13.9645 30.03 14.1595 30.045 14.3695 30.075C14.7145 30.12 15.0745 30.165 15.4345 30.195C16.2895 30.27 17.1595 30.315 18.0295 30.315C18.8845 30.315 19.7395 30.27 20.5795 30.195C20.8945 30.165 21.2095 30.15 21.5095 30.105C21.7495 30.075 21.9895 30.045 22.2445 30.015Z" fill="#6E44FF"/>
</svg>
