<svg width="110" height="24" viewBox="0 0 110 24" fill="none" xmlns="http://www.w3.org/2000/svg">
<path d="M12.1764 10.68C14.9634 11.85 16.4896 14.19 16.4896 17.01C16.4896 21.51 12.5082 24 8.26137 24C8.26137 24 8.26137 24 8.22819 24V19.68C8.26137 19.68 8.26137 19.68 8.26137 19.68C10.0198 19.68 11.5792 18.6 11.5792 17.01C11.5792 15.24 9.75438 14.16 8.26137 14.1C8.02912 14.1 6.2375 14.1 4.31316 13.29C1.55937 12.15 0 10.02 0 7.23C0 2.73 4.01456 0 8.26137 0C12.8068 0 16.3237 2.76 16.39 6.84C16.4232 6.93 16.2573 7.08 16.0251 7.08H11.8778C11.6787 7.08 11.5128 6.93 11.5128 6.84C11.4465 5.13 9.98663 4.32 8.26137 4.32C6.43657 4.32 4.94355 5.31 4.94355 7.23C4.94355 8.97 6.56928 9.87 8.26137 9.87C8.42726 9.87 10.2852 9.87 12.1764 10.68Z" fill="#6E44FF"/>
<path d="M31.2691 12.06C31.2691 13.29 30.1743 14.31 28.7808 14.31C27.3873 14.31 26.2924 13.29 26.2924 12.06C26.2924 10.8 27.3873 9.78 28.7808 9.78C30.1743 9.78 31.2691 10.8 31.2691 12.06ZM41.5544 11.97C41.5544 17.97 37.2744 24 28.8139 24C20.2208 24 16.0072 17.97 16.0072 11.97C16.0072 6 20.2208 0 28.8139 0C37.2744 0 41.5544 6 41.5544 11.97ZM36.5776 12.06C36.5776 8.13 33.9566 4.23 28.8139 4.23C23.605 4.23 21.0171 8.13 21.0171 12.06C21.0171 15.93 23.605 19.8 28.8139 19.8C33.9566 19.8 36.5776 15.93 36.5776 12.06Z" fill="#6E44FF"/>
<path d="M56.6377 19.59H61.714V23.73C61.714 23.85 61.5813 24 61.349 24H57.0359C50.4334 24 41.4753 22.26 41.4753 12C41.4753 1.35 50.533 0 57.0359 0H61.349C61.5813 0 61.714 0.15 61.714 0.27V9.69H56.6377V4.38C50.8647 4.11 46.5848 6.3 46.5848 12C46.5848 19.41 53.4195 19.71 56.6377 19.59Z" fill="#6E44FF"/>
<path d="M76.6649 12.06C76.6649 13.29 75.57 14.31 74.1766 14.31C72.7831 14.31 71.6882 13.29 71.6882 12.06C71.6882 10.8 72.7831 9.78 74.1766 9.78C75.57 9.78 76.6649 10.8 76.6649 12.06ZM86.9502 11.97C86.9502 17.97 82.6702 24 74.2097 24C65.6166 24 61.403 17.97 61.403 11.97C61.403 6 65.6166 0 74.2097 0C82.6702 0 86.9502 6 86.9502 11.97ZM81.9734 12.06C81.9734 8.13 79.3523 4.23 74.2097 4.23C69.0008 4.23 66.4129 8.13 66.4129 12.06C66.4129 15.93 69.0008 19.8 74.2097 19.8C79.3523 19.8 81.9734 15.93 81.9734 12.06Z" fill="#6E44FF"/>
<path d="M108.835 0C109.067 0 109.2 0.15 109.2 0.27V23.73C109.2 23.85 109.067 24 108.835 24H104.456C104.389 24 104.19 23.97 104.157 23.91L91.9473 8.1V18.24H86.8711V0.27C86.8711 0.15 87.037 0 87.2029 0H91.6156C91.6819 0 91.881 0.0299999 91.9142 0.0899991L104.157 15.9V0.27C104.157 0.15 104.323 0 104.555 0H108.835Z" fill="#6E44FF"/>
</svg>
