<svg width="44" height="44" viewBox="0 0 44 44" fill="none" xmlns="http://www.w3.org/2000/svg">
<g clip-path="url(#clip0_4330_222023)">
<circle cx="22" cy="22" r="22" fill="#7E7E7E"/>
<path d="M13.1111 18L14.3333 10H29L30.2222 18L36.3333 20.8572C32.6667 23.1429 10.6667 23.1429 7 20.8572L13.1111 18Z" fill="#FCFCFC"/>
<path fill-rule="evenodd" clip-rule="evenodd" d="M19.7573 30.5716C19.2363 32.5432 17.3987 34 15.2119 34C12.6198 34 10.5186 31.9533 10.5186 29.4286C10.5186 26.9038 12.6198 24.8571 15.2119 24.8571C17.3988 24.8571 19.2364 26.3141 19.7574 28.2858H23.5738C24.0948 26.3141 25.9324 24.8572 28.1193 24.8572C30.7114 24.8572 32.8127 26.9039 32.8127 29.4286C32.8127 31.9534 30.7114 34.0001 28.1193 34.0001C25.9325 34.0001 24.0949 32.5432 23.5739 30.5716H19.7573Z" fill="#FCFCFC"/>
</g>
<defs>
<clipPath id="clip0_4330_222023">
<rect width="44" height="44" fill="white"/>
</clipPath>
</defs>
</svg>
